{
  "asset": {
    "generator": "Open Asset Import Library (assimp v6.0.dcad2ae)",
    "version": "2.0"
  },
  "extensionsUsed": [
    "KHR_materials_specular"
  ],
  "accessors": [
    {
      "bufferView": 0,
      "componentType": 5126,
      "count": 324,
      "max": [
        2.2860000133514404,
        4.738823890686035,
        2.6416001319885254
      ],
      "min": [
        -3.0480000972747803,
        0,
        -1.6763999462127686
      ],
      "type": "VEC3"
    },
    {
      "bufferView": 1,
      "componentType": 5126,
      "count": 324,
      "max": [
        1,
        1,
        1
      ],
      "min": [
        -1,
        0,
        -1
      ],
      "type": "VEC3"
    },
    {
      "bufferView": 2,
      "componentType": 5126,
      "count": 324,
      "max": [
        0.7823650240898132,
        1
      ],
      "min": [
        0,
        0
      ],
      "type": "VEC2"
    },
    {
      "bufferView": 3,
      "componentType": 5125,
      "count": 570,
      "max": [
        323
      ],
      "min": [
        0
      ],
      "type": "SCALAR"
    }
  ],
  "bufferViews": [
    {
      "buffer": 0,
      "byteLength": 3888,
      "target": 34962
    },
    {
      "buffer": 0,
      "byteLength": 3888,
      "byteOffset": 3888,
      "target": 34962
    },
    {
      "buffer": 0,
      "byteLength": 2592,
      "byteOffset": 7776,
      "target": 34962
    },
    {
      "buffer": 0,
      "byteLength": 2280,
      "byteOffset": 10368,
      "target": 34963
    }
  ],
  "buffers": [
    {
      "byteLength": 12648,
      "uri": "Building.bin"
    }
  ],
  "images": [
    {
      "name": "Building",
      "uri": "../Textures/Building.png"
    },
    {
      "name": "buildingNormal",
      "uri": "../Textures/buildingNormal.png"
    }
  ],
  "materials": [
    {
      "extensions": {
        "KHR_materials_specular": {}
      },
      "extras": {
        "legacyMaterial": {
          "diffuse": [
            1,
            1,
            1,
            1
          ],
          "specular": [
            1,
            1,
            1
          ],
          "emissive": [
            0,
            0,
            0
          ],
          "shininess": 0
        },
        "legacyEffect": {
          "file": "..\\\\shaders\\\\NormalMapping.fx",
          "dwords": {
            "lightDir": 0,
            "technique": 6
          },
          "floats": {
            "ambientColor": [
              0.1,
              0.1,
              0.1,
              1
            ],
            "carHueColorChange": [
              0
            ],
            "diffuseColor": [
              1,
              1,
              1,
              1
            ],
            "shadowCarColor": [
              1,
              1,
              1,
              1
            ],
            "shininess": [
              8
            ],
            "specularColor": [
              0.556863,
              0.556863,
              0.556863,
              1
            ]
          },
          "strings": {
            "NormalizeCubeTexture": "..\\\\textures\\\\NormalizeCubeMap.dds",
            "diffuseTexture": "..\\\\textures\\\\Building.tga",
            "normalTexture": "..\\\\textures\\\\buildingNormal.tga",
            "reflectionCubeTexture": "..\\\\textures\\\\SkyCubeMap.dds"
          }
        }
      },
      "name": "PDX01_-_Default",
      "normalTexture": {
        "index": 1
      },
      "pbrMetallicRoughness": {
        "baseColorTexture": {
          "index": 0
        },
        "metallicFactor": 0
      }
    }
  ],
  "meshes": [
    {
      "primitives": [
        {
          "attributes": {
            "POSITION": 0,
            "NORMAL": 1,
            "TEXCOORD_0": 2
          },
          "indices": 3,
          "material": 0
        }
      ]
    }
  ],
  "nodes": [
    {
      "name": "Line01",
      "mesh": 0,
      "scale": [
        4.090017,
        4.090017,
        4.090017
      ],
      "translation": [
        0.508,
        0,
        -1.1176
      ]
    }
  ],
  "scene": 0,
  "scenes": [
    {
      "nodes": [
        0
      ]
    }
  ],
  "textures": [
    {
      "source": 0
    },
    {
      "source": 1
    }
  ]
}