{
  "asset": {
    "generator": "Open Asset Import Library (assimp v6.0.dcad2ae)",
    "version": "2.0"
  },
  "extensionsUsed": [
    "KHR_materials_specular"
  ],
  "accessors": [
    {
      "bufferView": 0,
      "componentType": 5126,
      "count": 164,
      "max": [
        6.198898792266846,
        2.7940001487731934,
        2.5458710193634033
      ],
      "min": [
        -2.125523090362549,
        -8.600000001024455E-05,
        -2.0199689865112305
      ],
      "type": "VEC3"
    },
    {
      "bufferView": 1,
      "componentType": 5126,
      "count": 164,
      "max": [
        1,
        1,
        1
      ],
      "min": [
        -1,
        -0.0022350011859089136,
        -1
      ],
      "type": "VEC3"
    },
    {
      "bufferView": 2,
      "componentType": 5126,
      "count": 164,
      "max": [
        0.9955559968948364,
        0.9946179986000061
      ],
      "min": [
        -0.0011739999754354358,
        -0.00025594234466552734
      ],
      "type": "VEC2"
    },
    {
      "bufferView": 3,
      "componentType": 5125,
      "count": 282,
      "max": [
        163
      ],
      "min": [
        0
      ],
      "type": "SCALAR"
    },
    {
      "bufferView": 4,
      "componentType": 5126,
      "count": 188,
      "max": [
        0.5501149892807007,
        0.8589969873428345,
        0.23078800737857819
      ],
      "min": [
        -0.19661100208759308,
        0,
        -0.30820098519325256
      ],
      "type": "VEC3"
    },
    {
      "bufferView": 5,
      "componentType": 5126,
      "count": 188,
      "max": [
        1,
        1,
        1
      ],
      "min": [
        -1,
        -0.17434296011924744,
        -1
      ],
      "type": "VEC3"
    },
    {
      "bufferView": 6,
      "componentType": 5126,
      "count": 188,
      "max": [
        0.30846598744392395,
        1.4760479927062988
      ],
      "min": [
        2.2250738585072014E-308,
        2.2250738585072014E-308
      ],
      "type": "VEC2"
    },
    {
      "bufferView": 7,
      "componentType": 5125,
      "count": 402,
      "max": [
        187
      ],
      "min": [
        0
      ],
      "type": "SCALAR"
    },
    {
      "bufferView": 8,
      "componentType": 5126,
      "count": 124,
      "max": [
        0.9373409748077393,
        1.137598991394043,
        0.6655759811401367
      ],
      "min": [
        -0.15410000085830688,
        -0.022050999104976654,
        -0.3613390028476715
      ],
      "type": "VEC3"
    },
    {
      "bufferView": 9,
      "componentType": 5126,
      "count": 124,
      "max": [
        1,
        1,
        1
      ],
      "min": [
        -1,
        -1,
        -1
      ],
      "type": "VEC3"
    },
    {
      "bufferView": 10,
      "componentType": 5126,
      "count": 124,
      "max": [
        0.3098990023136139,
        1.4773789644241333
      ],
      "min": [
        2.2250738585072014E-308,
        2.2250738585072014E-308
      ],
      "type": "VEC2"
    },
    {
      "bufferView": 11,
      "componentType": 5125,
      "count": 210,
      "max": [
        123
      ],
      "min": [
        0
      ],
      "type": "SCALAR"
    },
    {
      "bufferView": 12,
      "componentType": 5126,
      "count": 60,
      "max": [
        0.2680230140686035,
        0.47022899985313416,
        0.24327600002288818
      ],
      "min": [
        -0.26528099179267883,
        0,
        -0.07702700048685074
      ],
      "type": "VEC3"
    },
    {
      "bufferView": 13,
      "componentType": 5126,
      "count": 60,
      "max": [
        1,
        1,
        1
      ],
      "min": [
        -1,
        0,
        -1
      ],
      "type": "VEC3"
    },
    {
      "bufferView": 14,
      "componentType": 5126,
      "count": 60,
      "max": [
        0.2352290004491806,
        1.1341090202331543
      ],
      "min": [
        2.2250738585072014E-308,
        2.2250738585072014E-308
      ],
      "type": "VEC2"
    },
    {
      "bufferView": 15,
      "componentType": 5125,
      "count": 108,
      "max": [
        59
      ],
      "min": [
        0
      ],
      "type": "SCALAR"
    }
  ],
  "bufferViews": [
    {
      "buffer": 0,
      "byteLength": 1968,
      "target": 34962
    },
    {
      "buffer": 0,
      "byteLength": 1968,
      "byteOffset": 1968,
      "target": 34962
    },
    {
      "buffer": 0,
      "byteLength": 1312,
      "byteOffset": 3936,
      "target": 34962
    },
    {
      "buffer": 0,
      "byteLength": 1128,
      "byteOffset": 5248,
      "target": 34963
    },
    {
      "buffer": 0,
      "byteLength": 2256,
      "byteOffset": 6376,
      "target": 34962
    },
    {
      "buffer": 0,
      "byteLength": 2256,
      "byteOffset": 8632,
      "target": 34962
    },
    {
      "buffer": 0,
      "byteLength": 1504,
      "byteOffset": 10888,
      "target": 34962
    },
    {
      "buffer": 0,
      "byteLength": 1608,
      "byteOffset": 12392,
      "target": 34963
    },
    {
      "buffer": 0,
      "byteLength": 1488,
      "byteOffset": 14000,
      "target": 34962
    },
    {
      "buffer": 0,
      "byteLength": 1488,
      "byteOffset": 15488,
      "target": 34962
    },
    {
      "buffer": 0,
      "byteLength": 992,
      "byteOffset": 16976,
      "target": 34962
    },
    {
      "buffer": 0,
      "byteLength": 840,
      "byteOffset": 17968,
      "target": 34963
    },
    {
      "buffer": 0,
      "byteLength": 720,
      "byteOffset": 18808,
      "target": 34962
    },
    {
      "buffer": 0,
      "byteLength": 720,
      "byteOffset": 19528,
      "target": 34962
    },
    {
      "buffer": 0,
      "byteLength": 480,
      "byteOffset": 20248,
      "target": 34962
    },
    {
      "buffer": 0,
      "byteLength": 432,
      "byteOffset": 20728,
      "target": 34963
    }
  ],
  "buffers": [
    {
      "byteLength": 21160,
      "uri": "Building2.bin"
    }
  ],
  "images": [
    {
      "name": "building2",
      "uri": "../Textures/building2.png"
    },
    {
      "name": "building2Normal",
      "uri": "../Textures/building2Normal.png"
    }
  ],
  "materials": [
    {
      "extensions": {
        "KHR_materials_specular": {}
      },
      "extras": {
        "legacyMaterial": {
          "diffuse": [
            1,
            1,
            1,
            1
          ],
          "specular": [
            1,
            1,
            1
          ],
          "emissive": [
            0,
            0,
            0
          ],
          "shininess": 0
        },
        "legacyEffect": {
          "file": "..\\\\shaders\\\\NormalMapping.fx",
          "dwords": {
            "lightDir": 0,
            "technique": 6
          },
          "floats": {
            "ambientColor": [
              0.180392,
              0.180392,
              0.180392,
              1
            ],
            "carHueColorChange": [
              0
            ],
            "diffuseColor": [
              0.772549,
              0.772549,
              0.772549,
              1
            ],
            "shadowCarColor": [
              1,
              1,
              1,
              1
            ],
            "shininess": [
              16
            ],
            "specularColor": [
              0.643137,
              0.643137,
              0.643137,
              1
            ]
          },
          "strings": {
            "NormalizeCubeTexture": "..\\\\textures\\\\NormalizeCubeMap.dds",
            "diffuseTexture": "..\\\\textures\\\\building2.tga",
            "normalTexture": "..\\\\textures\\\\building2Normal.tga",
            "reflectionCubeTexture": "..\\\\textures\\\\SkyCubeMap.dds"
          }
        }
      },
      "name": "PDX13_-_Default",
      "normalTexture": {
        "index": 1
      },
      "pbrMetallicRoughness": {
        "baseColorTexture": {
          "index": 0
        },
        "metallicFactor": 0
      }
    },
    {
      "extensions": {
        "KHR_materials_specular": {}
      },
      "extras": {
        "legacyMaterial": {
          "diffuse": [
            1,
            1,
            1,
            1
          ],
          "specular": [
            1,
            1,
            1
          ],
          "emissive": [
            0,
            0,
            0
          ],
          "shininess": 0
        },
        "legacyEffect": {
          "file": "..\\\\shaders\\\\NormalMapping.fx",
          "dwords": {
            "lightDir": 0,
            "technique": 4
          },
          "floats": {
            "ambientColor": [
              0.392157,
              0.392157,
              0.392157,
              1
            ],
            "carHueColorChange": [
              0
            ],
            "diffuseColor": [
              1,
              1,
              1,
              1
            ],
            "shadowCarColor": [
              1,
              1,
              1,
              1
            ],
            "shininess": [
              16
            ],
            "specularColor": [
              1,
              1,
              1,
              1
            ]
          },
          "strings": {
            "NormalizeCubeTexture": "..\\\\textures\\\\NormalizeCubeMap.dds",
            "diffuseTexture": "..\\\\textures\\\\building2.tga",
            "normalTexture": "..\\\\textures\\\\building2Normal.tga",
            "reflectionCubeTexture": "..\\\\textures\\\\SkyCubeMap.dds"
          }
        }
      },
      "name": "orig_orig_07_-_Default",
      "normalTexture": {
        "index": 1
      },
      "pbrMetallicRoughness": {
        "baseColorTexture": {
          "index": 0
        },
        "metallicFactor": 0
      }
    }
  ],
  "meshes": [
    {
      "primitives": [
        {
          "attributes": {
            "POSITION": 0,
            "NORMAL": 1,
            "TEXCOORD_0": 2
          },
          "indices": 3,
          "material": 0
        }
      ]
    },
    {
      "primitives": [
        {
          "attributes": {
            "POSITION": 4,
            "NORMAL": 5,
            "TEXCOORD_0": 6
          },
          "indices": 7,
          "material": 1
        }
      ]
    },
    {
      "primitives": [
        {
          "attributes": {
            "POSITION": 8,
            "NORMAL": 9,
            "TEXCOORD_0": 10
          },
          "indices": 11,
          "material": 1
        }
      ]
    },
    {
      "primitives": [
        {
          "attributes": {
            "POSITION": 12,
            "NORMAL": 13,
            "TEXCOORD_0": 14
          },
          "indices": 15,
          "material": 1
        }
      ]
    }
  ],
  "nodes": [
    {
      "name": "$dummy_root",
      "children": [
        1,
        2,
        3,
        4
      ]
    },
    {
      "name": "Box01",
      "mesh": 0,
      "scale": [
        7.000056,
        7.000056,
        7.000056
      ],
      "translation": [
        -20.74325,
        -0.027946,
        -0.456247
      ]
    },
    {
      "name": "Box02",
      "mesh": 1,
      "scale": [
        9.776804,
        9.776804,
        9.776804
      ],
      "translation": [
        -7.457598,
        14.12673,
        -0.889194
      ]
    },
    {
      "name": "Box06",
      "mesh": 2,
      "scale": [
        7.000056,
        7.000056,
        7.000056
      ],
      "translation": [
        9.145231,
        18.762943,
        -5.81819
      ]
    },
    {
      "name": "Box05",
      "mesh": 3,
      "scale": [
        4.429014,
        8.15118,
        4.429014
      ],
      "translation": [
        12.118464,
        18.766796,
        5.961228
      ]
    }
  ],
  "scene": 0,
  "scenes": [
    {
      "nodes": [
        0
      ]
    }
  ],
  "textures": [
    {
      "source": 0
    },
    {
      "source": 1
    }
  ]
}