{
  "asset": {
    "generator": "Open Asset Import Library (assimp v6.0.dcad2ae)",
    "version": "2.0"
  },
  "extensionsUsed": [
    "KHR_materials_specular"
  ],
  "accessors": [
    {
      "bufferView": 0,
      "componentType": 5126,
      "count": 538,
      "max": [
        2.775536060333252,
        4.270542144775391,
        9.382736206054688
      ],
      "min": [
        -2.775536060333252,
        2.2250738585072014E-308,
        -5.938648223876953
      ],
      "type": "VEC3"
    },
    {
      "bufferView": 1,
      "componentType": 5126,
      "count": 538,
      "max": [
        0.9467386603355408,
        0.9762789011001587,
        0.8355078101158142
      ],
      "min": [
        -0.9467386603355408,
        2.2250738585072014E-308,
        -0.9864262342453003
      ],
      "type": "VEC3"
    },
    {
      "bufferView": 2,
      "componentType": 5126,
      "count": 538,
      "max": [
        0.9606119990348816,
        0.9900000095367432
      ],
      "min": [
        2.2250738585072014E-308,
        2.2250738585072014E-308
      ],
      "type": "VEC2"
    },
    {
      "bufferView": 3,
      "componentType": 5125,
      "count": 2364,
      "max": [
        537
      ],
      "min": [
        0
      ],
      "type": "SCALAR"
    },
    {
      "bufferView": 4,
      "componentType": 5126,
      "count": 5453,
      "max": [
        3.399467945098877,
        4.574585914611816,
        9.816085815429688
      ],
      "min": [
        -3.399467945098877,
        2.2250738585072014E-308,
        -6.44885778427124
      ],
      "type": "VEC3"
    },
    {
      "bufferView": 5,
      "componentType": 5126,
      "count": 5453,
      "max": [
        0.9998607635498047,
        0.9999992251396179,
        1
      ],
      "min": [
        -0.9998607635498047,
        -1,
        -1
      ],
      "type": "VEC3"
    },
    {
      "bufferView": 6,
      "componentType": 5126,
      "count": 5453,
      "max": [
        0.9787219762802124,
        1
      ],
      "min": [
        0,
        2.2250738585072014E-308
      ],
      "type": "VEC2"
    },
    {
      "bufferView": 7,
      "componentType": 5125,
      "count": 26940,
      "max": [
        5452
      ],
      "min": [
        0
      ],
      "type": "SCALAR"
    },
    {
      "bufferView": 8,
      "componentType": 5126,
      "count": 2914,
      "max": [
        3.3471710681915283,
        4.213653087615967,
        9.000560760498047
      ],
      "min": [
        -3.347169876098633,
        2.2250738585072014E-308,
        -6.010281085968018
      ],
      "type": "VEC3"
    },
    {
      "bufferView": 9,
      "componentType": 5126,
      "count": 2914,
      "max": [
        1,
        0.9999405145645142,
        0.9993994832038879
      ],
      "min": [
        -1,
        -1,
        -0.9998204708099365
      ],
      "type": "VEC3"
    },
    {
      "bufferView": 10,
      "componentType": 5126,
      "count": 2914,
      "max": [
        0.5669159889221191,
        0.9131879806518555
      ],
      "min": [
        2.2250738585072014E-308,
        2.2250738585072014E-308
      ],
      "type": "VEC2"
    },
    {
      "bufferView": 11,
      "componentType": 5125,
      "count": 8928,
      "max": [
        2913
      ],
      "min": [
        0
      ],
      "type": "SCALAR"
    },
    {
      "bufferView": 12,
      "componentType": 5126,
      "count": 780,
      "max": [
        2.915515899658203,
        3.1483330726623535,
        8.800199508666992
      ],
      "min": [
        -2.915515899658203,
        2.2250738585072014E-308,
        -6.181910037994385
      ],
      "type": "VEC3"
    },
    {
      "bufferView": 13,
      "componentType": 5126,
      "count": 780,
      "max": [
        1,
        1,
        0.665719211101532
      ],
      "min": [
        -1,
        -1,
        -0.9048497676849365
      ],
      "type": "VEC3"
    },
    {
      "bufferView": 14,
      "componentType": 5126,
      "count": 780,
      "max": [
        0.9957190155982971,
        0.9922789931297302
      ],
      "min": [
        2.2250738585072014E-308,
        2.2250738585072014E-308
      ],
      "type": "VEC2"
    },
    {
      "bufferView": 15,
      "componentType": 5125,
      "count": 2136,
      "max": [
        779
      ],
      "min": [
        0
      ],
      "type": "SCALAR"
    },
    {
      "bufferView": 16,
      "componentType": 5126,
      "count": 172,
      "max": [
        1.0577199459075928,
        1.2598400115966797,
        1.2598440647125244
      ],
      "min": [
        -0.256307989358902,
        -1.2598400115966797,
        -1.2598350048065186
      ],
      "type": "VEC3"
    },
    {
      "bufferView": 17,
      "componentType": 5126,
      "count": 172,
      "max": [
        0.8650137186050415,
        0.9591630101203918,
        0.959163248538971
      ],
      "min": [
        -1,
        -0.959163248538971,
        -0.9591630101203918
      ],
      "type": "VEC3"
    },
    {
      "bufferView": 18,
      "componentType": 5126,
      "count": 172,
      "max": [
        0.5137540102005005,
        0.34512996673583984
      ],
      "min": [
        0,
        2.2250738585072014E-308
      ],
      "type": "VEC2"
    },
    {
      "bufferView": 19,
      "componentType": 5125,
      "count": 642,
      "max": [
        171
      ],
      "min": [
        0
      ],
      "type": "SCALAR"
    },
    {
      "bufferView": 20,
      "componentType": 5126,
      "count": 533,
      "max": [
        0.26591700315475464,
        1.0217839479446411,
        1.0217889547348022
      ],
      "min": [
        -0.2725439965724945,
        -1.021785020828247,
        -1.021780014038086
      ],
      "type": "VEC3"
    },
    {
      "bufferView": 21,
      "componentType": 5126,
      "count": 533,
      "max": [
        0.5424219965934753,
        0.9948040246963501,
        0.9948041439056396
      ],
      "min": [
        -1,
        -0.9948041439056396,
        -0.994803786277771
      ],
      "type": "VEC3"
    },
    {
      "bufferView": 22,
      "componentType": 5126,
      "count": 533,
      "max": [
        0.9997439980506897,
        1
      ],
      "min": [
        0,
        0
      ],
      "type": "VEC2"
    },
    {
      "bufferView": 23,
      "componentType": 5125,
      "count": 2268,
      "max": [
        532
      ],
      "min": [
        0
      ],
      "type": "SCALAR"
    },
    {
      "bufferView": 24,
      "componentType": 5126,
      "count": 172,
      "max": [
        1.0577199459075928,
        1.2598400115966797,
        1.2598440647125244
      ],
      "min": [
        -0.256307989358902,
        -1.2598400115966797,
        -1.2598350048065186
      ],
      "type": "VEC3"
    },
    {
      "bufferView": 25,
      "componentType": 5126,
      "count": 172,
      "max": [
        0.8650137186050415,
        0.9591630101203918,
        0.959163248538971
      ],
      "min": [
        -1,
        -0.959163248538971,
        -0.9591630101203918
      ],
      "type": "VEC3"
    },
    {
      "bufferView": 26,
      "componentType": 5126,
      "count": 172,
      "max": [
        0.5137540102005005,
        0.34512996673583984
      ],
      "min": [
        0,
        2.2250738585072014E-308
      ],
      "type": "VEC2"
    },
    {
      "bufferView": 27,
      "componentType": 5125,
      "count": 642,
      "max": [
        171
      ],
      "min": [
        0
      ],
      "type": "SCALAR"
    },
    {
      "bufferView": 28,
      "componentType": 5126,
      "count": 533,
      "max": [
        0.26591700315475464,
        1.0217839479446411,
        1.0217889547348022
      ],
      "min": [
        -0.2725439965724945,
        -1.021785020828247,
        -1.021780014038086
      ],
      "type": "VEC3"
    },
    {
      "bufferView": 29,
      "componentType": 5126,
      "count": 533,
      "max": [
        0.5424219965934753,
        0.9948040246963501,
        0.9948041439056396
      ],
      "min": [
        -1,
        -0.9948041439056396,
        -0.994803786277771
      ],
      "type": "VEC3"
    },
    {
      "bufferView": 30,
      "componentType": 5126,
      "count": 533,
      "max": [
        0.9997439980506897,
        1
      ],
      "min": [
        0,
        0
      ],
      "type": "VEC2"
    },
    {
      "bufferView": 31,
      "componentType": 5125,
      "count": 2268,
      "max": [
        532
      ],
      "min": [
        0
      ],
      "type": "SCALAR"
    },
    {
      "bufferView": 32,
      "componentType": 5126,
      "count": 172,
      "max": [
        1.0577199459075928,
        1.2598400115966797,
        1.2598440647125244
      ],
      "min": [
        -0.256307989358902,
        -1.2598400115966797,
        -1.2598350048065186
      ],
      "type": "VEC3"
    },
    {
      "bufferView": 33,
      "componentType": 5126,
      "count": 172,
      "max": [
        0.8650137186050415,
        0.9591630101203918,
        0.959163248538971
      ],
      "min": [
        -1,
        -0.959163248538971,
        -0.9591630101203918
      ],
      "type": "VEC3"
    },
    {
      "bufferView": 34,
      "componentType": 5126,
      "count": 172,
      "max": [
        0.5137540102005005,
        0.34512996673583984
      ],
      "min": [
        0,
        2.2250738585072014E-308
      ],
      "type": "VEC2"
    },
    {
      "bufferView": 35,
      "componentType": 5125,
      "count": 642,
      "max": [
        171
      ],
      "min": [
        0
      ],
      "type": "SCALAR"
    },
    {
      "bufferView": 36,
      "componentType": 5126,
      "count": 533,
      "max": [
        0.26591700315475464,
        1.0217839479446411,
        1.0217889547348022
      ],
      "min": [
        -0.2725439965724945,
        -1.021785020828247,
        -1.021780014038086
      ],
      "type": "VEC3"
    },
    {
      "bufferView": 37,
      "componentType": 5126,
      "count": 533,
      "max": [
        0.5424219965934753,
        0.9948040246963501,
        0.9948041439056396
      ],
      "min": [
        -1,
        -0.9948041439056396,
        -0.994803786277771
      ],
      "type": "VEC3"
    },
    {
      "bufferView": 38,
      "componentType": 5126,
      "count": 533,
      "max": [
        0.9997439980506897,
        1
      ],
      "min": [
        0,
        0
      ],
      "type": "VEC2"
    },
    {
      "bufferView": 39,
      "componentType": 5125,
      "count": 2268,
      "max": [
        532
      ],
      "min": [
        0
      ],
      "type": "SCALAR"
    },
    {
      "bufferView": 40,
      "componentType": 5126,
      "count": 172,
      "max": [
        1.0577199459075928,
        1.2598400115966797,
        1.2598440647125244
      ],
      "min": [
        -0.256307989358902,
        -1.2598400115966797,
        -1.2598350048065186
      ],
      "type": "VEC3"
    },
    {
      "bufferView": 41,
      "componentType": 5126,
      "count": 172,
      "max": [
        0.8650137186050415,
        0.9591630101203918,
        0.959163248538971
      ],
      "min": [
        -1,
        -0.959163248538971,
        -0.9591630101203918
      ],
      "type": "VEC3"
    },
    {
      "bufferView": 42,
      "componentType": 5126,
      "count": 172,
      "max": [
        0.5137540102005005,
        0.34512996673583984
      ],
      "min": [
        0,
        2.2250738585072014E-308
      ],
      "type": "VEC2"
    },
    {
      "bufferView": 43,
      "componentType": 5125,
      "count": 642,
      "max": [
        171
      ],
      "min": [
        0
      ],
      "type": "SCALAR"
    },
    {
      "bufferView": 44,
      "componentType": 5126,
      "count": 533,
      "max": [
        0.26591700315475464,
        1.0217839479446411,
        1.0217889547348022
      ],
      "min": [
        -0.2725439965724945,
        -1.021785020828247,
        -1.021780014038086
      ],
      "type": "VEC3"
    },
    {
      "bufferView": 45,
      "componentType": 5126,
      "count": 533,
      "max": [
        0.5424219965934753,
        0.9948040246963501,
        0.9948041439056396
      ],
      "min": [
        -1,
        -0.9948041439056396,
        -0.994803786277771
      ],
      "type": "VEC3"
    },
    {
      "bufferView": 46,
      "componentType": 5126,
      "count": 533,
      "max": [
        0.9997439980506897,
        1
      ],
      "min": [
        0,
        0
      ],
      "type": "VEC2"
    },
    {
      "bufferView": 47,
      "componentType": 5125,
      "count": 2268,
      "max": [
        532
      ],
      "min": [
        0
      ],
      "type": "SCALAR"
    }
  ],
  "bufferViews": [
    {
      "buffer": 0,
      "byteLength": 6456,
      "target": 34962
    },
    {
      "buffer": 0,
      "byteLength": 6456,
      "byteOffset": 6456,
      "target": 34962
    },
    {
      "buffer": 0,
      "byteLength": 4304,
      "byteOffset": 12912,
      "target": 34962
    },
    {
      "buffer": 0,
      "byteLength": 9456,
      "byteOffset": 17216,
      "target": 34963
    },
    {
      "buffer": 0,
      "byteLength": 65436,
      "byteOffset": 26672,
      "target": 34962
    },
    {
      "buffer": 0,
      "byteLength": 65436,
      "byteOffset": 92108,
      "target": 34962
    },
    {
      "buffer": 0,
      "byteLength": 43624,
      "byteOffset": 157544,
      "target": 34962
    },
    {
      "buffer": 0,
      "byteLength": 107760,
      "byteOffset": 201168,
      "target": 34963
    },
    {
      "buffer": 0,
      "byteLength": 34968,
      "byteOffset": 308928,
      "target": 34962
    },
    {
      "buffer": 0,
      "byteLength": 34968,
      "byteOffset": 343896,
      "target": 34962
    },
    {
      "buffer": 0,
      "byteLength": 23312,
      "byteOffset": 378864,
      "target": 34962
    },
    {
      "buffer": 0,
      "byteLength": 35712,
      "byteOffset": 402176,
      "target": 34963
    },
    {
      "buffer": 0,
      "byteLength": 9360,
      "byteOffset": 437888,
      "target": 34962
    },
    {
      "buffer": 0,
      "byteLength": 9360,
      "byteOffset": 447248,
      "target": 34962
    },
    {
      "buffer": 0,
      "byteLength": 6240,
      "byteOffset": 456608,
      "target": 34962
    },
    {
      "buffer": 0,
      "byteLength": 8544,
      "byteOffset": 462848,
      "target": 34963
    },
    {
      "buffer": 0,
      "byteLength": 2064,
      "byteOffset": 471392,
      "target": 34962
    },
    {
      "buffer": 0,
      "byteLength": 2064,
      "byteOffset": 473456,
      "target": 34962
    },
    {
      "buffer": 0,
      "byteLength": 1376,
      "byteOffset": 475520,
      "target": 34962
    },
    {
      "buffer": 0,
      "byteLength": 2568,
      "byteOffset": 476896,
      "target": 34963
    },
    {
      "buffer": 0,
      "byteLength": 6396,
      "byteOffset": 479464,
      "target": 34962
    },
    {
      "buffer": 0,
      "byteLength": 6396,
      "byteOffset": 485860,
      "target": 34962
    },
    {
      "buffer": 0,
      "byteLength": 4264,
      "byteOffset": 492256,
      "target": 34962
    },
    {
      "buffer": 0,
      "byteLength": 9072,
      "byteOffset": 496520,
      "target": 34963
    },
    {
      "buffer": 0,
      "byteLength": 2064,
      "byteOffset": 505592,
      "target": 34962
    },
    {
      "buffer": 0,
      "byteLength": 2064,
      "byteOffset": 507656,
      "target": 34962
    },
    {
      "buffer": 0,
      "byteLength": 1376,
      "byteOffset": 509720,
      "target": 34962
    },
    {
      "buffer": 0,
      "byteLength": 2568,
      "byteOffset": 511096,
      "target": 34963
    },
    {
      "buffer": 0,
      "byteLength": 6396,
      "byteOffset": 513664,
      "target": 34962
    },
    {
      "buffer": 0,
      "byteLength": 6396,
      "byteOffset": 520060,
      "target": 34962
    },
    {
      "buffer": 0,
      "byteLength": 4264,
      "byteOffset": 526456,
      "target": 34962
    },
    {
      "buffer": 0,
      "byteLength": 9072,
      "byteOffset": 530720,
      "target": 34963
    },
    {
      "buffer": 0,
      "byteLength": 2064,
      "byteOffset": 539792,
      "target": 34962
    },
    {
      "buffer": 0,
      "byteLength": 2064,
      "byteOffset": 541856,
      "target": 34962
    },
    {
      "buffer": 0,
      "byteLength": 1376,
      "byteOffset": 543920,
      "target": 34962
    },
    {
      "buffer": 0,
      "byteLength": 2568,
      "byteOffset": 545296,
      "target": 34963
    },
    {
      "buffer": 0,
      "byteLength": 6396,
      "byteOffset": 547864,
      "target": 34962
    },
    {
      "buffer": 0,
      "byteLength": 6396,
      "byteOffset": 554260,
      "target": 34962
    },
    {
      "buffer": 0,
      "byteLength": 4264,
      "byteOffset": 560656,
      "target": 34962
    },
    {
      "buffer": 0,
      "byteLength": 9072,
      "byteOffset": 564920,
      "target": 34963
    },
    {
      "buffer": 0,
      "byteLength": 2064,
      "byteOffset": 573992,
      "target": 34962
    },
    {
      "buffer": 0,
      "byteLength": 2064,
      "byteOffset": 576056,
      "target": 34962
    },
    {
      "buffer": 0,
      "byteLength": 1376,
      "byteOffset": 578120,
      "target": 34962
    },
    {
      "buffer": 0,
      "byteLength": 2568,
      "byteOffset": 579496,
      "target": 34963
    },
    {
      "buffer": 0,
      "byteLength": 6396,
      "byteOffset": 582064,
      "target": 34962
    },
    {
      "buffer": 0,
      "byteLength": 6396,
      "byteOffset": 588460,
      "target": 34962
    },
    {
      "buffer": 0,
      "byteLength": 4264,
      "byteOffset": 594856,
      "target": 34962
    },
    {
      "buffer": 0,
      "byteLength": 9072,
      "byteOffset": 599120,
      "target": 34963
    }
  ],
  "buffers": [
    {
      "byteLength": 608192,
      "uri": "Car.bin"
    }
  ],
  "images": [
    {
      "name": "RacerCar",
      "uri": "../Textures/RacerCar.png"
    },
    {
      "name": "RacerCarNormal",
      "uri": "../Textures/RacerCarNormal.png"
    }
  ],
  "materials": [
    {
      "extensions": {
        "KHR_materials_specular": {}
      },
      "extras": {
        "legacyMaterial": {
          "diffuse": [
            1,
            1,
            1,
            1
          ],
          "specular": [
            1,
            1,
            1
          ],
          "emissive": [
            0,
            0,
            0
          ],
          "shininess": 0
        },
        "legacyEffect": {
          "file": "..\\\\shaders\\\\ReflectionSimpleGlass.fx",
          "dwords": {
            "lightDir": 0,
            "technique": 1
          },
          "floats": {
            "alphaFactor": [
              0.66
            ],
            "ambientColor": [
              0.1,
              0.1,
              0.1,
              1
            ],
            "diffuseColor": [
              0.05098,
              0.05098,
              0.05098,
              1
            ],
            "shininess": [
              64
            ],
            "specularColor": [
              0.917647,
              0.917647,
              1,
              1
            ]
          },
          "strings": {
            "reflectionCubeTexture": "..\\\\textures\\\\SkyCubeMap.dds"
          }
        }
      },
      "name": "Standard_19",
      "pbrMetallicRoughness": {
        "metallicFactor": 0
      }
    },
    {
      "extensions": {
        "KHR_materials_specular": {}
      },
      "extras": {
        "legacyMaterial": {
          "diffuse": [
            1,
            1,
            1,
            1
          ],
          "specular": [
            1,
            1,
            1
          ],
          "emissive": [
            0,
            0,
            0
          ],
          "shininess": 0
        },
        "legacyEffect": {
          "file": "..\\\\shaders\\\\NormalMapping.fx",
          "dwords": {
            "lightDir": 0,
            "technique": 8
          },
          "floats": {
            "ambientColor": [
              0.203922,
              0.203922,
              0.203922,
              1
            ],
            "carHueColorChange": [
              0
            ],
            "diffuseColor": [
              0.807843,
              0.807843,
              0.807843,
              1
            ],
            "shadowCarColor": [
              1,
              1,
              1,
              1
            ],
            "shininess": [
              16
            ],
            "specularColor": [
              1,
              1,
              1,
              1
            ]
          },
          "strings": {
            "NormalizeCubeTexture": "..\\\\textures\\\\NormalizeCubeMap.dds",
            "diffuseTexture": "..\\\\textures\\\\RacerCar.tga",
            "normalTexture": "..\\\\textures\\\\RacerCarNormal.tga",
            "reflectionCubeTexture": "..\\\\textures\\\\SkyCubeMap.dds"
          }
        }
      },
      "name": "Material__803_lackSub0",
      "normalTexture": {
        "index": 1
      },
      "pbrMetallicRoughness": {
        "baseColorTexture": {
          "index": 0
        },
        "metallicFactor": 0
      }
    },
    {
      "extensions": {
        "KHR_materials_specular": {}
      },
      "extras": {
        "legacyMaterial": {
          "diffuse": [
            1,
            1,
            1,
            1
          ],
          "specular": [
            1,
            1,
            1
          ],
          "emissive": [
            0,
            0,
            0
          ],
          "shininess": 0
        },
        "legacyEffect": {
          "file": "..\\\\shaders\\\\NormalMapping.fx",
          "dwords": {
            "lightDir": 0,
            "technique": 4
          },
          "floats": {
            "ambientColor": [
              0.141176,
              0.141176,
              0.141176,
              1
            ],
            "carHueColorChange": [
              0
            ],
            "diffuseColor": [
              0.392157,
              0.392157,
              0.392157,
              1
            ],
            "shadowCarColor": [
              1,
              1,
              1,
              1
            ],
            "shininess": [
              44
            ],
            "specularColor": [
              0.227451,
              0.227451,
              0.227451,
              1
            ]
          },
          "strings": {
            "NormalizeCubeTexture": "..\\\\textures\\\\NormalizeCubeMap.dds",
            "diffuseTexture": "..\\\\textures\\\\RacerCar.tga",
            "normalTexture": "..\\\\textures\\\\RacerCarNormal.tga",
            "reflectionCubeTexture": "..\\\\textures\\\\SkyCubeMap.dds"
          }
        }
      },
      "name": "Material__803_gummiSub1",
      "normalTexture": {
        "index": 1
      },
      "pbrMetallicRoughness": {
        "baseColorTexture": {
          "index": 0
        },
        "metallicFactor": 0
      }
    },
    {
      "extensions": {
        "KHR_materials_specular": {}
      },
      "extras": {
        "legacyMaterial": {
          "diffuse": [
            1,
            1,
            1,
            1
          ],
          "specular": [
            1,
            1,
            1
          ],
          "emissive": [
            0,
            0,
            0
          ],
          "shininess": 0
        },
        "legacyEffect": {
          "file": "..\\\\shaders\\\\NormalMapping.fx",
          "dwords": {
            "lightDir": 0,
            "technique": 8
          },
          "floats": {
            "ambientColor": [
              0.713726,
              0.713726,
              0.713726,
              1
            ],
            "carHueColorChange": [
              0
            ],
            "diffuseColor": [
              1,
              1,
              1,
              1
            ],
            "shadowCarColor": [
              1,
              1,
              1,
              1
            ],
            "shininess": [
              16
            ],
            "specularColor": [
              1,
              1,
              1,
              1
            ]
          },
          "strings": {
            "NormalizeCubeTexture": "..\\\\textures\\\\NormalizeCubeMap.dds",
            "diffuseTexture": "..\\\\textures\\\\RacerCar.tga",
            "normalTexture": "..\\\\textures\\\\RacerCarNormal.tga",
            "reflectionCubeTexture": "..\\\\textures\\\\SkyCubeMap.dds"
          }
        }
      },
      "name": "Material__803_chromeSub2",
      "normalTexture": {
        "index": 1
      },
      "pbrMetallicRoughness": {
        "baseColorTexture": {
          "index": 0
        },
        "metallicFactor": 0
      }
    },
    {
      "extensions": {
        "KHR_materials_specular": {}
      },
      "extras": {
        "legacyMaterial": {
          "diffuse": [
            1,
            1,
            1,
            1
          ],
          "specular": [
            1,
            1,
            1
          ],
          "emissive": [
            0,
            0,
            0
          ],
          "shininess": 0
        },
        "legacyEffect": {
          "file": "..\\\\shaders\\\\NormalMapping.fx",
          "dwords": {
            "lightDir": 0,
            "technique": 4
          },
          "floats": {
            "ambientColor": [
              0.141176,
              0.141176,
              0.141176,
              1
            ],
            "carHueColorChange": [
              0
            ],
            "diffuseColor": [
              0.392157,
              0.392157,
              0.392157,
              1
            ],
            "shadowCarColor": [
              1,
              1,
              1,
              1
            ],
            "shininess": [
              44
            ],
            "specularColor": [
              0.227451,
              0.227451,
              0.227451,
              1
            ]
          },
          "strings": {
            "NormalizeCubeTexture": "..\\\\textures\\\\NormalizeCubeMap.dds",
            "diffuseTexture": "..\\\\textures\\\\RacerCar.tga",
            "normalTexture": "..\\\\textures\\\\RacerCarNormal.tga",
            "reflectionCubeTexture": "..\\\\textures\\\\SkyCubeMap.dds"
          }
        }
      },
      "name": "Material__815_gummiSub0",
      "normalTexture": {
        "index": 1
      },
      "pbrMetallicRoughness": {
        "baseColorTexture": {
          "index": 0
        },
        "metallicFactor": 0
      }
    },
    {
      "extensions": {
        "KHR_materials_specular": {}
      },
      "extras": {
        "legacyMaterial": {
          "diffuse": [
            1,
            1,
            1,
            1
          ],
          "specular": [
            1,
            1,
            1
          ],
          "emissive": [
            0,
            0,
            0
          ],
          "shininess": 0
        },
        "legacyEffect": {
          "file": "..\\\\shaders\\\\NormalMapping.fx",
          "dwords": {
            "lightDir": 0,
            "technique": 8
          },
          "floats": {
            "ambientColor": [
              0.713726,
              0.713726,
              0.713726,
              1
            ],
            "carHueColorChange": [
              0
            ],
            "diffuseColor": [
              1,
              1,
              1,
              1
            ],
            "shadowCarColor": [
              1,
              1,
              1,
              1
            ],
            "shininess": [
              16
            ],
            "specularColor": [
              1,
              1,
              1,
              1
            ]
          },
          "strings": {
            "NormalizeCubeTexture": "..\\\\textures\\\\NormalizeCubeMap.dds",
            "diffuseTexture": "..\\\\textures\\\\RacerCar.tga",
            "normalTexture": "..\\\\textures\\\\RacerCarNormal.tga",
            "reflectionCubeTexture": "..\\\\textures\\\\SkyCubeMap.dds"
          }
        }
      },
      "name": "Material__815_chromeSub1",
      "normalTexture": {
        "index": 1
      },
      "pbrMetallicRoughness": {
        "baseColorTexture": {
          "index": 0
        },
        "metallicFactor": 0
      }
    }
  ],
  "meshes": [
    {
      "primitives": [
        {
          "attributes": {
            "POSITION": 0,
            "NORMAL": 1,
            "TEXCOORD_0": 2
          },
          "indices": 3,
          "material": 0
        }
      ]
    },
    {
      "primitives": [
        {
          "attributes": {
            "POSITION": 4,
            "NORMAL": 5,
            "TEXCOORD_0": 6
          },
          "indices": 7,
          "material": 1
        },
        {
          "attributes": {
            "POSITION": 8,
            "NORMAL": 9,
            "TEXCOORD_0": 10
          },
          "indices": 11,
          "material": 2
        },
        {
          "attributes": {
            "POSITION": 12,
            "NORMAL": 13,
            "TEXCOORD_0": 14
          },
          "indices": 15,
          "material": 3
        }
      ]
    },
    {
      "primitives": [
        {
          "attributes": {
            "POSITION": 16,
            "NORMAL": 17,
            "TEXCOORD_0": 18
          },
          "indices": 19,
          "material": 4
        },
        {
          "attributes": {
            "POSITION": 20,
            "NORMAL": 21,
            "TEXCOORD_0": 22
          },
          "indices": 23,
          "material": 5
        }
      ]
    },
    {
      "primitives": [
        {
          "attributes": {
            "POSITION": 24,
            "NORMAL": 25,
            "TEXCOORD_0": 26
          },
          "indices": 27,
          "material": 4
        },
        {
          "attributes": {
            "POSITION": 28,
            "NORMAL": 29,
            "TEXCOORD_0": 30
          },
          "indices": 31,
          "material": 5
        }
      ]
    },
    {
      "primitives": [
        {
          "attributes": {
            "POSITION": 32,
            "NORMAL": 33,
            "TEXCOORD_0": 34
          },
          "indices": 35,
          "material": 4
        },
        {
          "attributes": {
            "POSITION": 36,
            "NORMAL": 37,
            "TEXCOORD_0": 38
          },
          "indices": 39,
          "material": 5
        }
      ]
    },
    {
      "primitives": [
        {
          "attributes": {
            "POSITION": 40,
            "NORMAL": 41,
            "TEXCOORD_0": 42
          },
          "indices": 43,
          "material": 4
        },
        {
          "attributes": {
            "POSITION": 44,
            "NORMAL": 45,
            "TEXCOORD_0": 46
          },
          "indices": 47,
          "material": 5
        }
      ]
    }
  ],
  "nodes": [
    {
      "name": "$dummy_root",
      "children": [
        1,
        2,
        3,
        4,
        5,
        6
      ]
    },
    {
      "name": "glass",
      "mesh": 0,
      "scale": [
        0.366722,
        0.366722,
        0.366722
      ],
      "translation": [
        -1E-06,
        0.18347347,
        -0.7174418
      ]
    },
    {
      "name": "Car",
      "mesh": 1,
      "scale": [
        0.366722,
        0.366722,
        0.366722
      ],
      "translation": [
        -1E-06,
        0.183473,
        -0.717442
      ]
    },
    {
      "name": "WheelFrontRight",
      "mesh": 2,
      "scale": [
        0.366722,
        0.366722,
        0.366722
      ],
      "translation": [
        -1.094309,
        0.465328,
        1.6856439
      ]
    },
    {
      "name": "WheelBackRight",
      "mesh": 3,
      "scale": [
        0.366722,
        0.366722,
        0.366722
      ],
      "translation": [
        -1.096556,
        0.465328,
        -1.882939
      ]
    },
    {
      "name": "WheelBackLeft",
      "mesh": 4,
      "rotation": [
        0,
        1,
        -0,
        0
      ],
      "scale": [
        0.366722,
        0.366722,
        0.366722
      ],
      "translation": [
        1.103668,
        0.465328,
        -1.882939
      ]
    },
    {
      "name": "WheelFrontLeft",
      "mesh": 5,
      "rotation": [
        0,
        1,
        -0,
        0
      ],
      "scale": [
        0.366722,
        0.366722,
        0.366722
      ],
      "translation": [
        1.111161,
        0.465328,
        1.6856439
      ]
    }
  ],
  "scene": 0,
  "scenes": [
    {
      "nodes": [
        0
      ]
    }
  ],
  "textures": [
    {
      "source": 0
    },
    {
      "source": 1
    }
  ]
}