{
  "asset": {
    "generator": "Open Asset Import Library (assimp v6.0.dcad2ae)",
    "version": "2.0"
  },
  "extensionsUsed": [
    "KHR_materials_specular"
  ],
  "accessors": [
    {
      "bufferView": 0,
      "componentType": 5126,
      "count": 4025,
      "max": [
        3.9871699810028076,
        4.8802289962768555,
        2.374825954437256
      ],
      "min": [
        -2.318922996520996,
        -0.0005600000149570405,
        -1.536641001701355
      ],
      "type": "VEC3"
    },
    {
      "bufferView": 1,
      "componentType": 5126,
      "count": 4025,
      "max": [
        1,
        1,
        1
      ],
      "min": [
        -1,
        -1,
        -1
      ],
      "type": "VEC3"
    },
    {
      "bufferView": 2,
      "componentType": 5126,
      "count": 4025,
      "max": [
        3.0100300312042236,
        0.9989809989929199
      ],
      "min": [
        -0.5677120089530945,
        2.2250738585072014E-308
      ],
      "type": "VEC2"
    },
    {
      "bufferView": 3,
      "componentType": 5125,
      "count": 7878,
      "max": [
        4024
      ],
      "min": [
        0
      ],
      "type": "SCALAR"
    },
    {
      "bufferView": 4,
      "componentType": 5126,
      "count": 1272,
      "max": [
        3.901078939437866,
        4.394200801849365,
        2.2881789207458496
      ],
      "min": [
        -1.4625329971313477,
        0,
        -1.4499790668487549
      ],
      "type": "VEC3"
    },
    {
      "bufferView": 5,
      "componentType": 5126,
      "count": 1272,
      "max": [
        0.9999973773956299,
        2.000000222324161E-06,
        1
      ],
      "min": [
        -1,
        -1.0000001111620804E-06,
        -1
      ],
      "type": "VEC3"
    },
    {
      "bufferView": 6,
      "componentType": 5126,
      "count": 1272,
      "max": [
        3.0100300312042236,
        1
      ],
      "min": [
        -0.275175005197525,
        0
      ],
      "type": "VEC2"
    },
    {
      "bufferView": 7,
      "componentType": 5125,
      "count": 1908,
      "max": [
        1271
      ],
      "min": [
        0
      ],
      "type": "SCALAR"
    },
    {
      "bufferView": 8,
      "componentType": 5126,
      "count": 1699,
      "max": [
        1.4416439533233643,
        6.5016961097717285,
        3.43914794921875
      ],
      "min": [
        -1.325814962387085,
        -2.256865978240967,
        -5.425498008728027
      ],
      "type": "VEC3"
    },
    {
      "bufferView": 9,
      "componentType": 5126,
      "count": 1699,
      "max": [
        1,
        1,
        1
      ],
      "min": [
        -1,
        -1,
        -1
      ],
      "type": "VEC3"
    },
    {
      "bufferView": 10,
      "componentType": 5126,
      "count": 1699,
      "max": [
        1.0092610120773315,
        0.843887984752655
      ],
      "min": [
        2.2250738585072014E-308,
        2.2250738585072014E-308
      ],
      "type": "VEC2"
    },
    {
      "bufferView": 11,
      "componentType": 5125,
      "count": 3474,
      "max": [
        1698
      ],
      "min": [
        0
      ],
      "type": "SCALAR"
    },
    {
      "bufferView": 12,
      "componentType": 5126,
      "count": 12,
      "max": [
        -0.12944799661636353,
        3.958603858947754,
        1.8800239562988281
      ],
      "min": [
        -1.088379979133606,
        2.2250738585072014E-308,
        2.2250738585072014E-308
      ],
      "type": "VEC3"
    },
    {
      "bufferView": 13,
      "componentType": 5126,
      "count": 12,
      "max": [
        0.12718801200389862,
        0.04421497881412506,
        0.9998153448104858
      ],
      "min": [
        -0.10907203704118729,
        -0.03685601428151131,
        2.2250738585072014E-308
      ],
      "type": "VEC3"
    },
    {
      "bufferView": 14,
      "componentType": 5126,
      "count": 12,
      "max": [
        0.9962499737739563,
        0.999055027961731
      ],
      "min": [
        2.2250738585072014E-308,
        2.2250738585072014E-308
      ],
      "type": "VEC2"
    },
    {
      "bufferView": 15,
      "componentType": 5125,
      "count": 36,
      "max": [
        11
      ],
      "min": [
        0
      ],
      "type": "SCALAR"
    },
    {
      "bufferView": 16,
      "componentType": 5126,
      "count": 156,
      "max": [
        0.037255000323057175,
        0.02355000004172325,
        0.07215400040149689
      ],
      "min": [
        -0.11062899976968765,
        -0.017552999779582024,
        -0.003992000129073858
      ],
      "type": "VEC3"
    },
    {
      "bufferView": 17,
      "componentType": 5126,
      "count": 156,
      "max": [
        0.9076496958732605,
        0.9930754899978638,
        0.18777300417423248
      ],
      "min": [
        -0.5165320634841919,
        -0.09439995884895325,
        -0.9991633296012878
      ],
      "type": "VEC3"
    },
    {
      "bufferView": 18,
      "componentType": 5126,
      "count": 156,
      "max": [
        1.3066749572753906,
        0.9977290034294128
      ],
      "min": [
        -0.9960209727287292,
        -0.010316967964172363
      ],
      "type": "VEC2"
    },
    {
      "bufferView": 19,
      "componentType": 5125,
      "count": 156,
      "max": [
        155
      ],
      "min": [
        0
      ],
      "type": "SCALAR"
    },
    {
      "bufferView": 20,
      "componentType": 5126,
      "count": 156,
      "max": [
        0.09076700359582901,
        0.021284999325871468,
        0.0691239982843399
      ],
      "min": [
        -0.047456998378038406,
        -0.015863999724388123,
        -0.003992000129073858
      ],
      "type": "VEC3"
    },
    {
      "bufferView": 21,
      "componentType": 5126,
      "count": 156,
      "max": [
        0.9076452255249023,
        0.9930760264396667,
        0.18779602646827698
      ],
      "min": [
        -0.5165150165557861,
        -0.09448904544115067,
        -0.9991653561592102
      ],
      "type": "VEC3"
    },
    {
      "bufferView": 22,
      "componentType": 5126,
      "count": 156,
      "max": [
        1.3066749572753906,
        0.9977290034294128
      ],
      "min": [
        -0.9960209727287292,
        -0.010316967964172363
      ],
      "type": "VEC2"
    },
    {
      "bufferView": 23,
      "componentType": 5125,
      "count": 156,
      "max": [
        155
      ],
      "min": [
        0
      ],
      "type": "SCALAR"
    },
    {
      "bufferView": 24,
      "componentType": 5126,
      "count": 120,
      "max": [
        0.037838999181985855,
        0.014383000321686268,
        0.04211299866437912
      ],
      "min": [
        -0.10227599740028381,
        -0.022846000269055367,
        -0.019832000136375427
      ],
      "type": "VEC3"
    },
    {
      "bufferView": 25,
      "componentType": 5126,
      "count": 120,
      "max": [
        0.8559295535087585,
        1,
        0.2102290689945221
      ],
      "min": [
        -0.49777913093566895,
        -0.048532988876104355,
        -0.9987557530403137
      ],
      "type": "VEC3"
    },
    {
      "bufferView": 26,
      "componentType": 5126,
      "count": 120,
      "max": [
        1.3066749572753906,
        0.9977290034294128
      ],
      "min": [
        -0.9960209727287292,
        2.2250738585072014E-308
      ],
      "type": "VEC2"
    },
    {
      "bufferView": 27,
      "componentType": 5125,
      "count": 120,
      "max": [
        119
      ],
      "min": [
        0
      ],
      "type": "SCALAR"
    },
    {
      "bufferView": 28,
      "componentType": 5126,
      "count": 192,
      "max": [
        0.15673300623893738,
        0.01816200092434883,
        0.07227999716997147
      ],
      "min": [
        -0.03976700082421303,
        -0.10022199898958206,
        -0.03142800182104111
      ],
      "type": "VEC3"
    },
    {
      "bufferView": 29,
      "componentType": 5126,
      "count": 192,
      "max": [
        0.9982818961143494,
        1,
        0.24651893973350525
      ],
      "min": [
        -0.12456395477056503,
        2.2250738585072014E-308,
        -0.9985966086387634
      ],
      "type": "VEC3"
    },
    {
      "bufferView": 30,
      "componentType": 5126,
      "count": 192,
      "max": [
        1.3066749572753906,
        0.9977290034294128
      ],
      "min": [
        -0.9960209727287292,
        -0.010316967964172363
      ],
      "type": "VEC2"
    },
    {
      "bufferView": 31,
      "componentType": 5125,
      "count": 192,
      "max": [
        191
      ],
      "min": [
        0
      ],
      "type": "SCALAR"
    },
    {
      "bufferView": 32,
      "componentType": 5126,
      "count": 156,
      "max": [
        0.09076700359582901,
        0.021284999325871468,
        0.0691239982843399
      ],
      "min": [
        -0.047456998378038406,
        -0.015863999724388123,
        -0.003992000129073858
      ],
      "type": "VEC3"
    },
    {
      "bufferView": 33,
      "componentType": 5126,
      "count": 156,
      "max": [
        0.9076452255249023,
        0.9930760264396667,
        0.18779602646827698
      ],
      "min": [
        -0.5165150165557861,
        -0.09448904544115067,
        -0.9991653561592102
      ],
      "type": "VEC3"
    },
    {
      "bufferView": 34,
      "componentType": 5126,
      "count": 156,
      "max": [
        1.3066749572753906,
        0.9977290034294128
      ],
      "min": [
        -0.9960209727287292,
        -0.010316967964172363
      ],
      "type": "VEC2"
    },
    {
      "bufferView": 35,
      "componentType": 5125,
      "count": 156,
      "max": [
        155
      ],
      "min": [
        0
      ],
      "type": "SCALAR"
    },
    {
      "bufferView": 36,
      "componentType": 5126,
      "count": 192,
      "max": [
        0.15673300623893738,
        0.01816200092434883,
        0.07227999716997147
      ],
      "min": [
        -0.03976700082421303,
        -0.10022199898958206,
        -0.03142800182104111
      ],
      "type": "VEC3"
    },
    {
      "bufferView": 37,
      "componentType": 5126,
      "count": 192,
      "max": [
        0.9982818961143494,
        1,
        0.24651893973350525
      ],
      "min": [
        -0.12456395477056503,
        2.2250738585072014E-308,
        -0.9985966086387634
      ],
      "type": "VEC3"
    },
    {
      "bufferView": 38,
      "componentType": 5126,
      "count": 192,
      "max": [
        1.3066749572753906,
        0.9977290034294128
      ],
      "min": [
        -0.9960209727287292,
        -0.010316967964172363
      ],
      "type": "VEC2"
    },
    {
      "bufferView": 39,
      "componentType": 5125,
      "count": 192,
      "max": [
        191
      ],
      "min": [
        0
      ],
      "type": "SCALAR"
    },
    {
      "bufferView": 40,
      "componentType": 5126,
      "count": 156,
      "max": [
        0.09076700359582901,
        0.021284999325871468,
        0.0691239982843399
      ],
      "min": [
        -0.047456998378038406,
        -0.015863999724388123,
        -0.003992000129073858
      ],
      "type": "VEC3"
    },
    {
      "bufferView": 41,
      "componentType": 5126,
      "count": 156,
      "max": [
        0.9076452255249023,
        0.9930760264396667,
        0.18779602646827698
      ],
      "min": [
        -0.5165150165557861,
        -0.09448904544115067,
        -0.9991653561592102
      ],
      "type": "VEC3"
    },
    {
      "bufferView": 42,
      "componentType": 5126,
      "count": 156,
      "max": [
        1.3066749572753906,
        0.9977290034294128
      ],
      "min": [
        -0.9960209727287292,
        -0.010316967964172363
      ],
      "type": "VEC2"
    },
    {
      "bufferView": 43,
      "componentType": 5125,
      "count": 156,
      "max": [
        155
      ],
      "min": [
        0
      ],
      "type": "SCALAR"
    },
    {
      "bufferView": 44,
      "componentType": 5126,
      "count": 192,
      "max": [
        0.15673300623893738,
        0.01816200092434883,
        0.07227999716997147
      ],
      "min": [
        -0.03976700082421303,
        -0.10022199898958206,
        -0.03142800182104111
      ],
      "type": "VEC3"
    },
    {
      "bufferView": 45,
      "componentType": 5126,
      "count": 192,
      "max": [
        0.9982818961143494,
        1,
        0.24651893973350525
      ],
      "min": [
        -0.12456395477056503,
        2.2250738585072014E-308,
        -0.9985966086387634
      ],
      "type": "VEC3"
    },
    {
      "bufferView": 46,
      "componentType": 5126,
      "count": 192,
      "max": [
        1.3066749572753906,
        0.9977290034294128
      ],
      "min": [
        -0.9960209727287292,
        -0.010316967964172363
      ],
      "type": "VEC2"
    },
    {
      "bufferView": 47,
      "componentType": 5125,
      "count": 192,
      "max": [
        191
      ],
      "min": [
        0
      ],
      "type": "SCALAR"
    }
  ],
  "bufferViews": [
    {
      "buffer": 0,
      "byteLength": 48300,
      "target": 34962
    },
    {
      "buffer": 0,
      "byteLength": 48300,
      "byteOffset": 48300,
      "target": 34962
    },
    {
      "buffer": 0,
      "byteLength": 32200,
      "byteOffset": 96600,
      "target": 34962
    },
    {
      "buffer": 0,
      "byteLength": 31512,
      "byteOffset": 128800,
      "target": 34963
    },
    {
      "buffer": 0,
      "byteLength": 15264,
      "byteOffset": 160312,
      "target": 34962
    },
    {
      "buffer": 0,
      "byteLength": 15264,
      "byteOffset": 175576,
      "target": 34962
    },
    {
      "buffer": 0,
      "byteLength": 10176,
      "byteOffset": 190840,
      "target": 34962
    },
    {
      "buffer": 0,
      "byteLength": 7632,
      "byteOffset": 201016,
      "target": 34963
    },
    {
      "buffer": 0,
      "byteLength": 20388,
      "byteOffset": 208648,
      "target": 34962
    },
    {
      "buffer": 0,
      "byteLength": 20388,
      "byteOffset": 229036,
      "target": 34962
    },
    {
      "buffer": 0,
      "byteLength": 13592,
      "byteOffset": 249424,
      "target": 34962
    },
    {
      "buffer": 0,
      "byteLength": 13896,
      "byteOffset": 263016,
      "target": 34963
    },
    {
      "buffer": 0,
      "byteLength": 144,
      "byteOffset": 276912,
      "target": 34962
    },
    {
      "buffer": 0,
      "byteLength": 144,
      "byteOffset": 277056,
      "target": 34962
    },
    {
      "buffer": 0,
      "byteLength": 96,
      "byteOffset": 277200,
      "target": 34962
    },
    {
      "buffer": 0,
      "byteLength": 144,
      "byteOffset": 277296,
      "target": 34963
    },
    {
      "buffer": 0,
      "byteLength": 1872,
      "byteOffset": 277440,
      "target": 34962
    },
    {
      "buffer": 0,
      "byteLength": 1872,
      "byteOffset": 279312,
      "target": 34962
    },
    {
      "buffer": 0,
      "byteLength": 1248,
      "byteOffset": 281184,
      "target": 34962
    },
    {
      "buffer": 0,
      "byteLength": 624,
      "byteOffset": 282432,
      "target": 34963
    },
    {
      "buffer": 0,
      "byteLength": 1872,
      "byteOffset": 283056,
      "target": 34962
    },
    {
      "buffer": 0,
      "byteLength": 1872,
      "byteOffset": 284928,
      "target": 34962
    },
    {
      "buffer": 0,
      "byteLength": 1248,
      "byteOffset": 286800,
      "target": 34962
    },
    {
      "buffer": 0,
      "byteLength": 624,
      "byteOffset": 288048,
      "target": 34963
    },
    {
      "buffer": 0,
      "byteLength": 1440,
      "byteOffset": 288672,
      "target": 34962
    },
    {
      "buffer": 0,
      "byteLength": 1440,
      "byteOffset": 290112,
      "target": 34962
    },
    {
      "buffer": 0,
      "byteLength": 960,
      "byteOffset": 291552,
      "target": 34962
    },
    {
      "buffer": 0,
      "byteLength": 480,
      "byteOffset": 292512,
      "target": 34963
    },
    {
      "buffer": 0,
      "byteLength": 2304,
      "byteOffset": 292992,
      "target": 34962
    },
    {
      "buffer": 0,
      "byteLength": 2304,
      "byteOffset": 295296,
      "target": 34962
    },
    {
      "buffer": 0,
      "byteLength": 1536,
      "byteOffset": 297600,
      "target": 34962
    },
    {
      "buffer": 0,
      "byteLength": 768,
      "byteOffset": 299136,
      "target": 34963
    },
    {
      "buffer": 0,
      "byteLength": 1872,
      "byteOffset": 299904,
      "target": 34962
    },
    {
      "buffer": 0,
      "byteLength": 1872,
      "byteOffset": 301776,
      "target": 34962
    },
    {
      "buffer": 0,
      "byteLength": 1248,
      "byteOffset": 303648,
      "target": 34962
    },
    {
      "buffer": 0,
      "byteLength": 624,
      "byteOffset": 304896,
      "target": 34963
    },
    {
      "buffer": 0,
      "byteLength": 2304,
      "byteOffset": 305520,
      "target": 34962
    },
    {
      "buffer": 0,
      "byteLength": 2304,
      "byteOffset": 307824,
      "target": 34962
    },
    {
      "buffer": 0,
      "byteLength": 1536,
      "byteOffset": 310128,
      "target": 34962
    },
    {
      "buffer": 0,
      "byteLength": 768,
      "byteOffset": 311664,
      "target": 34963
    },
    {
      "buffer": 0,
      "byteLength": 1872,
      "byteOffset": 312432,
      "target": 34962
    },
    {
      "buffer": 0,
      "byteLength": 1872,
      "byteOffset": 314304,
      "target": 34962
    },
    {
      "buffer": 0,
      "byteLength": 1248,
      "byteOffset": 316176,
      "target": 34962
    },
    {
      "buffer": 0,
      "byteLength": 624,
      "byteOffset": 317424,
      "target": 34963
    },
    {
      "buffer": 0,
      "byteLength": 2304,
      "byteOffset": 318048,
      "target": 34962
    },
    {
      "buffer": 0,
      "byteLength": 2304,
      "byteOffset": 320352,
      "target": 34962
    },
    {
      "buffer": 0,
      "byteLength": 1536,
      "byteOffset": 322656,
      "target": 34962
    },
    {
      "buffer": 0,
      "byteLength": 768,
      "byteOffset": 324192,
      "target": 34963
    }
  ],
  "buffers": [
    {
      "byteLength": 324960,
      "uri": "Hotel01.bin"
    }
  ],
  "images": [
    {
      "name": "Hotel01",
      "uri": "../Textures/Hotel01.png"
    },
    {
      "name": "Hotel01Normal",
      "uri": "../Textures/Hotel01Normal.png"
    },
    {
      "name": "plants",
      "uri": "../Textures/plants.png"
    },
    {
      "name": "plants_normal",
      "uri": "../Textures/plants_normal.png"
    }
  ],
  "materials": [
    {
      "extensions": {
        "KHR_materials_specular": {}
      },
      "extras": {
        "legacyMaterial": {
          "diffuse": [
            1,
            1,
            1,
            1
          ],
          "specular": [
            1,
            1,
            1
          ],
          "emissive": [
            0,
            0,
            0
          ],
          "shininess": 0
        },
        "legacyEffect": {
          "file": "..\\\\shaders\\\\NormalMapping.fx",
          "dwords": {
            "lightDir": 0,
            "technique": 6
          },
          "floats": {
            "ambientColor": [
              0.360784,
              0.360784,
              0.360784,
              1
            ],
            "carHueColorChange": [
              0
            ],
            "diffuseColor": [
              0.556863,
              0.556863,
              0.556863,
              1
            ],
            "shadowCarColor": [
              1,
              1,
              1,
              1
            ],
            "shininess": [
              32
            ],
            "specularColor": [
              0.215686,
              0.215686,
              0.215686,
              1
            ]
          },
          "strings": {
            "NormalizeCubeTexture": "..\\\\textures\\\\NormalizeCubeMap.dds",
            "diffuseTexture": "..\\\\textures\\\\Hotel01.tga",
            "normalTexture": "..\\\\textures\\\\Hotel01Normal.tga",
            "reflectionCubeTexture": "..\\\\textures\\\\SkyCubeMap.dds"
          }
        }
      },
      "name": "Hotel01",
      "normalTexture": {
        "index": 1
      },
      "pbrMetallicRoughness": {
        "baseColorTexture": {
          "index": 0
        },
        "metallicFactor": 0
      }
    },
    {
      "extensions": {
        "KHR_materials_specular": {}
      },
      "extras": {
        "legacyMaterial": {
          "diffuse": [
            1,
            1,
            1,
            1
          ],
          "specular": [
            1,
            1,
            1
          ],
          "emissive": [
            0,
            0,
            0
          ],
          "shininess": 0
        },
        "legacyEffect": {
          "file": "..\\\\shaders\\\\ReflectionSimpleGlass.fx",
          "dwords": {
            "lightDir": 0,
            "technique": 1
          },
          "floats": {
            "alphaFactor": [
              1
            ],
            "ambientColor": [
              0.160784,
              0.160784,
              0.160784,
              1
            ],
            "diffuseColor": [
              1,
              1,
              1,
              1
            ],
            "shininess": [
              16
            ],
            "specularColor": [
              1,
              1,
              1,
              1
            ]
          },
          "strings": {
            "reflectionCubeTexture": "..\\\\textures\\\\SkyCubeMap.dds"
          }
        }
      },
      "name": "Material__39",
      "pbrMetallicRoughness": {
        "metallicFactor": 0
      }
    },
    {
      "extensions": {
        "KHR_materials_specular": {}
      },
      "extras": {
        "legacyMaterial": {
          "diffuse": [
            1,
            1,
            1,
            1
          ],
          "specular": [
            1,
            1,
            1
          ],
          "emissive": [
            0,
            0,
            0
          ],
          "shininess": 0
        },
        "legacyEffect": {
          "file": "..\\\\shaders\\\\NormalMapping.fx",
          "dwords": {
            "lightDir": 0,
            "technique": 6
          },
          "floats": {
            "ambientColor": [
              0.247059,
              0.247059,
              0.247059,
              1
            ],
            "carHueColorChange": [
              0
            ],
            "diffuseColor": [
              0.87451,
              0.87451,
              0.87451,
              1
            ],
            "shadowCarColor": [
              1,
              1,
              1,
              1
            ],
            "shininess": [
              45
            ],
            "specularColor": [
              0.8,
              0.8,
              0.8,
              1
            ]
          },
          "strings": {
            "NormalizeCubeTexture": "..\\\\textures\\\\NormalizeCubeMap.dds",
            "diffuseTexture": "..\\\\textures\\\\Hotel01.tga",
            "normalTexture": "..\\\\textures\\\\Hotel01Normal.tga",
            "reflectionCubeTexture": "..\\\\textures\\\\SkyCubeMap.dds"
          }
        }
      },
      "name": "Hotel01_dach",
      "normalTexture": {
        "index": 1
      },
      "pbrMetallicRoughness": {
        "baseColorTexture": {
          "index": 0
        },
        "metallicFactor": 0
      }
    },
    {
      "extensions": {
        "KHR_materials_specular": {}
      },
      "extras": {
        "legacyMaterial": {
          "diffuse": [
            1,
            1,
            1,
            1
          ],
          "specular": [
            1,
            1,
            1
          ],
          "emissive": [
            0,
            0,
            0
          ],
          "shininess": 0
        },
        "legacyEffect": {
          "file": "..\\\\shaders\\\\NormalMapping.fx",
          "dwords": {
            "lightDir": 0,
            "technique": 4
          },
          "floats": {
            "ambientColor": [
              0.498039,
              0.498039,
              0.498039,
              1
            ],
            "carHueColorChange": [
              0
            ],
            "diffuseColor": [
              0.615686,
              0.615686,
              0.615686,
              1
            ],
            "shadowCarColor": [
              1,
              1,
              1,
              1
            ],
            "shininess": [
              15
            ],
            "specularColor": [
              0.780392,
              0.780392,
              0.780392,
              1
            ]
          },
          "strings": {
            "NormalizeCubeTexture": "..\\\\textures\\\\NormalizeCubeMap.dds",
            "diffuseTexture": "..\\\\textures\\\\Hotel01.tga",
            "normalTexture": "..\\\\textures\\\\Hotel01Normal.tga",
            "reflectionCubeTexture": "..\\\\textures\\\\SkyCubeMap.dds"
          }
        }
      },
      "name": "HotelPoster",
      "normalTexture": {
        "index": 1
      },
      "pbrMetallicRoughness": {
        "baseColorTexture": {
          "index": 0
        },
        "metallicFactor": 0
      }
    },
    {
      "extensions": {
        "KHR_materials_specular": {}
      },
      "extras": {
        "legacyMaterial": {
          "diffuse": [
            1,
            1,
            1,
            1
          ],
          "specular": [
            1,
            1,
            1
          ],
          "emissive": [
            0,
            0,
            0
          ],
          "shininess": 0
        },
        "legacyEffect": {
          "file": "..\\\\shaders\\\\NormalMapping.fx",
          "dwords": {
            "lightDir": 0,
            "technique": 6
          },
          "floats": {
            "ambientColor": [
              0.545098,
              0.545098,
              0.545098,
              1
            ],
            "carHueColorChange": [
              0
            ],
            "diffuseColor": [
              0.431373,
              0.431373,
              0.431373,
              1
            ],
            "shadowCarColor": [
              1,
              1,
              1,
              1
            ],
            "shininess": [
              44
            ],
            "specularColor": [
              0.992157,
              0.992157,
              0.992157,
              1
            ]
          },
          "strings": {
            "NormalizeCubeTexture": "..\\\\textures\\\\NormalizeCubeMap.dds",
            "diffuseTexture": "..\\\\textures\\\\plants.tga",
            "normalTexture": "..\\\\textures\\\\plants_normal.tga",
            "reflectionCubeTexture": "..\\\\textures\\\\SkyCubeMap.dds"
          }
        }
      },
      "name": "plants",
      "normalTexture": {
        "index": 3
      },
      "pbrMetallicRoughness": {
        "baseColorTexture": {
          "index": 2
        },
        "metallicFactor": 0
      }
    }
  ],
  "meshes": [
    {
      "primitives": [
        {
          "attributes": {
            "POSITION": 0,
            "NORMAL": 1,
            "TEXCOORD_0": 2
          },
          "indices": 3,
          "material": 0
        }
      ]
    },
    {
      "primitives": [
        {
          "attributes": {
            "POSITION": 4,
            "NORMAL": 5,
            "TEXCOORD_0": 6
          },
          "indices": 7,
          "material": 1
        }
      ]
    },
    {
      "primitives": [
        {
          "attributes": {
            "POSITION": 8,
            "NORMAL": 9,
            "TEXCOORD_0": 10
          },
          "indices": 11,
          "material": 2
        }
      ]
    },
    {
      "primitives": [
        {
          "attributes": {
            "POSITION": 12,
            "NORMAL": 13,
            "TEXCOORD_0": 14
          },
          "indices": 15,
          "material": 3
        }
      ]
    },
    {
      "primitives": [
        {
          "attributes": {
            "POSITION": 16,
            "NORMAL": 17,
            "TEXCOORD_0": 18
          },
          "indices": 19,
          "material": 4
        }
      ]
    },
    {
      "primitives": [
        {
          "attributes": {
            "POSITION": 20,
            "NORMAL": 21,
            "TEXCOORD_0": 22
          },
          "indices": 23,
          "material": 4
        }
      ]
    },
    {
      "primitives": [
        {
          "attributes": {
            "POSITION": 24,
            "NORMAL": 25,
            "TEXCOORD_0": 26
          },
          "indices": 27,
          "material": 4
        }
      ]
    },
    {
      "primitives": [
        {
          "attributes": {
            "POSITION": 28,
            "NORMAL": 29,
            "TEXCOORD_0": 30
          },
          "indices": 31,
          "material": 4
        }
      ]
    },
    {
      "primitives": [
        {
          "attributes": {
            "POSITION": 32,
            "NORMAL": 33,
            "TEXCOORD_0": 34
          },
          "indices": 35,
          "material": 4
        }
      ]
    },
    {
      "primitives": [
        {
          "attributes": {
            "POSITION": 36,
            "NORMAL": 37,
            "TEXCOORD_0": 38
          },
          "indices": 39,
          "material": 4
        }
      ]
    },
    {
      "primitives": [
        {
          "attributes": {
            "POSITION": 40,
            "NORMAL": 41,
            "TEXCOORD_0": 42
          },
          "indices": 43,
          "material": 4
        }
      ]
    },
    {
      "primitives": [
        {
          "attributes": {
            "POSITION": 44,
            "NORMAL": 45,
            "TEXCOORD_0": 46
          },
          "indices": 47,
          "material": 4
        }
      ]
    }
  ],
  "nodes": [
    {
      "name": "$dummy_root",
      "children": [
        1,
        2,
        3,
        4,
        5,
        6,
        7,
        8,
        9,
        10,
        11,
        12
      ]
    },
    {
      "name": "Hotel01_node",
      "mesh": 0,
      "scale": [
        13.740877,
        13.740877,
        13.740877
      ],
      "translation": [
        -0.548477,
        0,
        -0.158964
      ]
    },
    {
      "name": "Glas",
      "mesh": 1,
      "scale": [
        13.740877,
        13.740877,
        13.740877
      ],
      "translation": [
        -0.548477,
        0,
        -0.158964
      ]
    },
    {
      "name": "Object02",
      "mesh": 2,
      "rotation": [
        0,
        0.7071067,
        0,
        0.7071068
      ],
      "scale": [
        8.385999,
        8.385999,
        8.385999
      ],
      "translation": [
        23.924805,
        19.605347,
        0.0008087158
      ]
    },
    {
      "name": "Object03",
      "mesh": 3,
      "scale": [
        13.740877,
        13.740877,
        13.740877
      ],
      "translation": [
        -0.548477,
        0,
        -13.87438
      ]
    },
    {
      "name": "pflanzen01",
      "mesh": 4,
      "rotation": [
        -0.49999994,
        0.50000006,
        -0.50000006,
        -0.49999982
      ],
      "scale": [
        40.890095,
        40.890087,
        40.890095
      ],
      "translation": [
        0.025229,
        7.118999,
        29.606174
      ]
    },
    {
      "name": "pflanzen02",
      "mesh": 5,
      "rotation": [
        0.7071068,
        0,
        0,
        0.7071067
      ],
      "scale": [
        45.24185,
        45.24185,
        45.24185
      ],
      "translation": [
        4.100584,
        7.118999,
        31.552536
      ]
    },
    {
      "name": "Pflanzen03",
      "mesh": 6,
      "rotation": [
        0.6873857,
        0.06082736,
        -0.0140962135,
        0.72360367
      ],
      "scale": [
        45.42285,
        45.422825,
        45.422848
      ],
      "translation": [
        14.482257,
        6.136983,
        31.89289
      ]
    },
    {
      "name": "Pflanzen04",
      "mesh": 7,
      "rotation": [
        0.667612,
        -0.1285277,
        0.16429229,
        0.7146908
      ],
      "scale": [
        29.83534,
        29.835354,
        29.835342
      ],
      "translation": [
        19.00364,
        6.136983,
        31.958403
      ]
    },
    {
      "name": "pflanzen03",
      "mesh": 8,
      "rotation": [
        -0.49999988,
        0.5000001,
        -0.49999994,
        -0.49999976
      ],
      "scale": [
        45.241837,
        45.24182,
        45.241825
      ],
      "translation": [
        -0.15293,
        7.118999,
        19.596718
      ]
    },
    {
      "name": "Pflanzen05",
      "mesh": 9,
      "rotation": [
        0.667612,
        -0.1285277,
        0.16429229,
        0.7146908
      ],
      "scale": [
        29.83534,
        29.835354,
        29.835342
      ],
      "translation": [
        -6.750511,
        6.221502,
        14.21747
      ]
    },
    {
      "name": "pflanzen04",
      "mesh": 10,
      "rotation": [
        0.6123724,
        -0.35355332,
        0.35355332,
        0.61237246
      ],
      "scale": [
        23.222975,
        23.222975,
        23.222973
      ],
      "translation": [
        -22.198502,
        1.38624,
        4.48123
      ]
    },
    {
      "name": "Pflanzen06",
      "mesh": 11,
      "rotation": [
        0.5163173,
        -0.44401297,
        0.45399788,
        0.574591
      ],
      "scale": [
        15.016404,
        15.016412,
        15.016404
      ],
      "translation": [
        -22.564663,
        0.911779,
        -7.673586
      ]
    }
  ],
  "scene": 0,
  "scenes": [
    {
      "nodes": [
        0
      ]
    }
  ],
  "textures": [
    {
      "source": 0
    },
    {
      "source": 1
    },
    {
      "source": 2
    },
    {
      "source": 3
    }
  ]
}