{
  "asset": {
    "generator": "Open Asset Import Library (assimp v6.0.dcad2ae)",
    "version": "2.0"
  },
  "extensionsUsed": [
    "KHR_materials_specular"
  ],
  "accessors": [
    {
      "bufferView": 0,
      "componentType": 5126,
      "count": 238,
      "max": [
        51.722801208496094,
        258.8416748046875,
        12.953204154968262
      ],
      "min": [
        -51.722801208496094,
        0,
        -12.953204154968262
      ],
      "type": "VEC3"
    },
    {
      "bufferView": 1,
      "componentType": 5126,
      "count": 238,
      "max": [
        1,
        0.9800001382827759,
        1
      ],
      "min": [
        -1,
        -0.9995454549789429,
        -1
      ],
      "type": "VEC3"
    },
    {
      "bufferView": 2,
      "componentType": 5126,
      "count": 238,
      "max": [
        0.9848880171775818,
        0.9892709851264954
      ],
      "min": [
        2.2250738585072014E-308,
        2.2250738585072014E-308
      ],
      "type": "VEC2"
    },
    {
      "bufferView": 3,
      "componentType": 5125,
      "count": 636,
      "max": [
        237
      ],
      "min": [
        0
      ],
      "type": "SCALAR"
    }
  ],
  "bufferViews": [
    {
      "buffer": 0,
      "byteLength": 2856,
      "target": 34962
    },
    {
      "buffer": 0,
      "byteLength": 2856,
      "byteOffset": 2856,
      "target": 34962
    },
    {
      "buffer": 0,
      "byteLength": 1904,
      "byteOffset": 5712,
      "target": 34962
    },
    {
      "buffer": 0,
      "byteLength": 2544,
      "byteOffset": 7616,
      "target": 34963
    }
  ],
  "buffers": [
    {
      "byteLength": 10160,
      "uri": "Laterne2Sides.bin"
    }
  ],
  "images": [
    {
      "name": "streetlamp",
      "uri": "../Textures/streetlamp.png"
    },
    {
      "name": "streetlampNormal",
      "uri": "../Textures/streetlampNormal.png"
    }
  ],
  "materials": [
    {
      "extensions": {
        "KHR_materials_specular": {}
      },
      "extras": {
        "legacyMaterial": {
          "diffuse": [
            1,
            1,
            1,
            1
          ],
          "specular": [
            1,
            1,
            1
          ],
          "emissive": [
            0,
            0,
            0
          ],
          "shininess": 0
        },
        "legacyEffect": {
          "file": "..\\\\shaders\\\\NormalMapping.fx",
          "dwords": {
            "lightDir": 0,
            "technique": 8
          },
          "floats": {
            "ambientColor": [
              0.196078,
              0.196078,
              0.196078,
              1
            ],
            "carHueColorChange": [
              0
            ],
            "diffuseColor": [
              0.87451,
              0.87451,
              0.87451,
              1
            ],
            "shadowCarColor": [
              1,
              1,
              1,
              1
            ],
            "shininess": [
              16
            ],
            "specularColor": [
              1,
              1,
              1,
              1
            ]
          },
          "strings": {
            "NormalizeCubeTexture": "..\\\\textures\\\\NormalizeCubeMap.dds",
            "diffuseTexture": "..\\\\textures\\\\streetlamp.tga",
            "normalTexture": "..\\\\textures\\\\streetlampNormal.tga",
            "reflectionCubeTexture": "..\\\\textures\\\\SkyCubeMap.dds"
          }
        }
      },
      "name": "orig_01_-_Default",
      "normalTexture": {
        "index": 1
      },
      "pbrMetallicRoughness": {
        "baseColorTexture": {
          "index": 0
        },
        "metallicFactor": 0
      }
    }
  ],
  "meshes": [
    {
      "name": "streetlamp",
      "primitives": [
        {
          "attributes": {
            "POSITION": 0,
            "NORMAL": 1,
            "TEXCOORD_0": 2
          },
          "indices": 3,
          "material": 0
        }
      ]
    }
  ],
  "nodes": [
    {
      "name": "streetlamp",
      "mesh": 0,
      "scale": [
        0.026875,
        0.026875,
        0.026875
      ]
    }
  ],
  "scene": 0,
  "scenes": [
    {
      "nodes": [
        0
      ]
    }
  ],
  "textures": [
    {
      "source": 0
    },
    {
      "source": 1
    }
  ]
}