{
  "asset": {
    "generator": "Open Asset Import Library (assimp v6.0.dcad2ae)",
    "version": "2.0"
  },
  "extensionsUsed": [
    "KHR_materials_specular"
  ],
  "accessors": [
    {
      "bufferView": 0,
      "componentType": 5126,
      "count": 1560,
      "max": [
        7.8231987953186035,
        4.730276107788086,
        4.775200843811035
      ],
      "min": [
        -1.9811999797821045,
        0,
        -5.029200077056885
      ],
      "type": "VEC3"
    },
    {
      "bufferView": 1,
      "componentType": 5126,
      "count": 1560,
      "max": [
        1,
        1,
        1
      ],
      "min": [
        -1,
        -1,
        -1
      ],
      "type": "VEC3"
    },
    {
      "bufferView": 2,
      "componentType": 5126,
      "count": 1560,
      "max": [
        0.9925510287284851,
        2.2834091186523438
      ],
      "min": [
        -0.7866330146789551,
        2.2250738585072014E-308
      ],
      "type": "VEC2"
    },
    {
      "bufferView": 3,
      "componentType": 5125,
      "count": 2964,
      "max": [
        1559
      ],
      "min": [
        0
      ],
      "type": "SCALAR"
    }
  ],
  "bufferViews": [
    {
      "buffer": 0,
      "byteLength": 18720,
      "target": 34962
    },
    {
      "buffer": 0,
      "byteLength": 18720,
      "byteOffset": 18720,
      "target": 34962
    },
    {
      "buffer": 0,
      "byteLength": 12480,
      "byteOffset": 37440,
      "target": 34962
    },
    {
      "buffer": 0,
      "byteLength": 11856,
      "byteOffset": 49920,
      "target": 34963
    }
  ],
  "buffers": [
    {
      "byteLength": 61776,
      "uri": "SandCastle.bin"
    }
  ],
  "images": [
    {
      "name": "Fort",
      "uri": "../Textures/Fort.png"
    },
    {
      "name": "FortNormal",
      "uri": "../Textures/FortNormal.png"
    }
  ],
  "materials": [
    {
      "extensions": {
        "KHR_materials_specular": {}
      },
      "extras": {
        "legacyMaterial": {
          "diffuse": [
            1,
            1,
            1,
            1
          ],
          "specular": [
            1,
            1,
            1
          ],
          "emissive": [
            0,
            0,
            0
          ],
          "shininess": 0
        },
        "legacyEffect": {
          "file": "..\\\\shaders\\\\NormalMapping.fx",
          "dwords": {
            "lightDir": 0,
            "technique": 6
          },
          "floats": {
            "ambientColor": [
              0.196078,
              0.196078,
              0.196078,
              1
            ],
            "carHueColorChange": [
              0
            ],
            "diffuseColor": [
              0.819608,
              0.819608,
              0.819608,
              1
            ],
            "shadowCarColor": [
              1,
              1,
              1,
              1
            ],
            "shininess": [
              16
            ],
            "specularColor": [
              0.631373,
              0.619608,
              0.54902,
              1
            ]
          },
          "strings": {
            "NormalizeCubeTexture": "..\\\\textures\\\\NormalizeCubeMap.dds",
            "diffuseTexture": "..\\\\textures\\\\Fort.tga",
            "normalTexture": "..\\\\textures\\\\FortNormal.tga",
            "reflectionCubeTexture": "..\\\\textures\\\\SkyCubeMap.dds"
          }
        }
      },
      "name": "PDX09_-_Default",
      "normalTexture": {
        "index": 1
      },
      "pbrMetallicRoughness": {
        "baseColorTexture": {
          "index": 0
        },
        "metallicFactor": 0
      }
    }
  ],
  "meshes": [
    {
      "primitives": [
        {
          "attributes": {
            "POSITION": 0,
            "NORMAL": 1,
            "TEXCOORD_0": 2
          },
          "indices": 3,
          "material": 0
        }
      ]
    }
  ],
  "nodes": [
    {
      "name": "Fort",
      "mesh": 0,
      "scale": [
        3.5,
        3.5,
        3.5
      ],
      "translation": [
        -10.668,
        0,
        -0
      ]
    }
  ],
  "scene": 0,
  "scenes": [
    {
      "nodes": [
        0
      ]
    }
  ],
  "textures": [
    {
      "source": 0
    },
    {
      "source": 1
    }
  ]
}