{
  "asset": {
    "generator": "Open Asset Import Library (assimp v6.0.dcad2ae)",
    "version": "2.0"
  },
  "extensionsUsed": [
    "KHR_materials_specular"
  ],
  "accessors": [
    {
      "bufferView": 0,
      "componentType": 5126,
      "count": 186,
      "max": [
        6.600007057189941,
        149.0780029296875,
        185.165283203125
      ],
      "min": [
        -6.5999908447265625,
        -13.81053352355957,
        -60.1128044128418
      ],
      "type": "VEC3"
    },
    {
      "bufferView": 1,
      "componentType": 5126,
      "count": 186,
      "max": [
        1,
        1,
        1
      ],
      "min": [
        -1,
        -1,
        -1
      ],
      "type": "VEC3"
    },
    {
      "bufferView": 2,
      "componentType": 5126,
      "count": 186,
      "max": [
        0.9915810227394104,
        0.9822850227355957
      ],
      "min": [
        2.2250738585072014E-308,
        2.2250738585072014E-308
      ],
      "type": "VEC2"
    },
    {
      "bufferView": 3,
      "componentType": 5125,
      "count": 432,
      "max": [
        185
      ],
      "min": [
        0
      ],
      "type": "SCALAR"
    },
    {
      "bufferView": 4,
      "componentType": 5126,
      "count": 51,
      "max": [
        10.838858604431152,
        12.477508544921875,
        10.308366775512695
      ],
      "min": [
        -10.838858604431152,
        2.2250738585072014E-308,
        -10.308366775512695
      ],
      "type": "VEC3"
    },
    {
      "bufferView": 5,
      "componentType": 5126,
      "count": 51,
      "max": [
        0.9824784994125366,
        1,
        0.9343927502632141
      ],
      "min": [
        -0.9824784994125366,
        2.2250738585072014E-308,
        -0.9343927502632141
      ],
      "type": "VEC3"
    },
    {
      "bufferView": 6,
      "componentType": 5126,
      "count": 51,
      "max": [
        0.9995009899139404,
        0.9995009899139404
      ],
      "min": [
        2.2250738585072014E-308,
        2.2250738585072014E-308
      ],
      "type": "VEC2"
    },
    {
      "bufferView": 7,
      "componentType": 5125,
      "count": 210,
      "max": [
        50
      ],
      "min": [
        0
      ],
      "type": "SCALAR"
    },
    {
      "bufferView": 8,
      "componentType": 5126,
      "count": 51,
      "max": [
        10.838858604431152,
        12.477508544921875,
        10.308366775512695
      ],
      "min": [
        -10.838858604431152,
        2.2250738585072014E-308,
        -10.308366775512695
      ],
      "type": "VEC3"
    },
    {
      "bufferView": 9,
      "componentType": 5126,
      "count": 51,
      "max": [
        0.9824784994125366,
        1,
        0.9343927502632141
      ],
      "min": [
        -0.9824784994125366,
        2.2250738585072014E-308,
        -0.9343927502632141
      ],
      "type": "VEC3"
    },
    {
      "bufferView": 10,
      "componentType": 5126,
      "count": 51,
      "max": [
        0.9995009899139404,
        0.9995009899139404
      ],
      "min": [
        2.2250738585072014E-308,
        2.2250738585072014E-308
      ],
      "type": "VEC2"
    },
    {
      "bufferView": 11,
      "componentType": 5125,
      "count": 210,
      "max": [
        50
      ],
      "min": [
        0
      ],
      "type": "SCALAR"
    },
    {
      "bufferView": 12,
      "componentType": 5126,
      "count": 174,
      "max": [
        145.824951171875,
        220.88453674316406,
        46.243526458740234
      ],
      "min": [
        2.2250738585072014E-308,
        2.2250738585072014E-308,
        -41.698760986328125
      ],
      "type": "VEC3"
    },
    {
      "bufferView": 13,
      "componentType": 5126,
      "count": 174,
      "max": [
        1,
        0.9914448857307434,
        0.9898141026496887
      ],
      "min": [
        -1,
        -0.9914448857307434,
        -0.9930071234703064
      ],
      "type": "VEC3"
    },
    {
      "bufferView": 14,
      "componentType": 5126,
      "count": 174,
      "max": [
        0.9466210007667542,
        0.9752339720726013
      ],
      "min": [
        2.2250738585072014E-308,
        2.2250738585072014E-308
      ],
      "type": "VEC2"
    },
    {
      "bufferView": 15,
      "componentType": 5125,
      "count": 300,
      "max": [
        173
      ],
      "min": [
        0
      ],
      "type": "SCALAR"
    },
    {
      "bufferView": 16,
      "componentType": 5126,
      "count": 51,
      "max": [
        10.838858604431152,
        12.477508544921875,
        10.308366775512695
      ],
      "min": [
        -10.838858604431152,
        2.2250738585072014E-308,
        -10.308366775512695
      ],
      "type": "VEC3"
    },
    {
      "bufferView": 17,
      "componentType": 5126,
      "count": 51,
      "max": [
        0.9824784994125366,
        1,
        0.9343927502632141
      ],
      "min": [
        -0.9824784994125366,
        2.2250738585072014E-308,
        -0.9343927502632141
      ],
      "type": "VEC3"
    },
    {
      "bufferView": 18,
      "componentType": 5126,
      "count": 51,
      "max": [
        0.9995009899139404,
        0.9995009899139404
      ],
      "min": [
        2.2250738585072014E-308,
        2.2250738585072014E-308
      ],
      "type": "VEC2"
    },
    {
      "bufferView": 19,
      "componentType": 5125,
      "count": 210,
      "max": [
        50
      ],
      "min": [
        0
      ],
      "type": "SCALAR"
    }
  ],
  "bufferViews": [
    {
      "buffer": 0,
      "byteLength": 2232,
      "target": 34962
    },
    {
      "buffer": 0,
      "byteLength": 2232,
      "byteOffset": 2232,
      "target": 34962
    },
    {
      "buffer": 0,
      "byteLength": 1488,
      "byteOffset": 4464,
      "target": 34962
    },
    {
      "buffer": 0,
      "byteLength": 1728,
      "byteOffset": 5952,
      "target": 34963
    },
    {
      "buffer": 0,
      "byteLength": 612,
      "byteOffset": 7680,
      "target": 34962
    },
    {
      "buffer": 0,
      "byteLength": 612,
      "byteOffset": 8292,
      "target": 34962
    },
    {
      "buffer": 0,
      "byteLength": 408,
      "byteOffset": 8904,
      "target": 34962
    },
    {
      "buffer": 0,
      "byteLength": 840,
      "byteOffset": 9312,
      "target": 34963
    },
    {
      "buffer": 0,
      "byteLength": 612,
      "byteOffset": 10152,
      "target": 34962
    },
    {
      "buffer": 0,
      "byteLength": 612,
      "byteOffset": 10764,
      "target": 34962
    },
    {
      "buffer": 0,
      "byteLength": 408,
      "byteOffset": 11376,
      "target": 34962
    },
    {
      "buffer": 0,
      "byteLength": 840,
      "byteOffset": 11784,
      "target": 34963
    },
    {
      "buffer": 0,
      "byteLength": 2088,
      "byteOffset": 12624,
      "target": 34962
    },
    {
      "buffer": 0,
      "byteLength": 2088,
      "byteOffset": 14712,
      "target": 34962
    },
    {
      "buffer": 0,
      "byteLength": 1392,
      "byteOffset": 16800,
      "target": 34962
    },
    {
      "buffer": 0,
      "byteLength": 1200,
      "byteOffset": 18192,
      "target": 34963
    },
    {
      "buffer": 0,
      "byteLength": 612,
      "byteOffset": 19392,
      "target": 34962
    },
    {
      "buffer": 0,
      "byteLength": 612,
      "byteOffset": 20004,
      "target": 34962
    },
    {
      "buffer": 0,
      "byteLength": 408,
      "byteOffset": 20616,
      "target": 34962
    },
    {
      "buffer": 0,
      "byteLength": 840,
      "byteOffset": 21024,
      "target": 34963
    }
  ],
  "buffers": [
    {
      "byteLength": 21864,
      "uri": "StartLight.bin"
    }
  ],
  "images": [
    {
      "name": "TLight",
      "uri": "../Textures/TLight.png"
    },
    {
      "name": "TLightNormal",
      "uri": "../Textures/TLightNormal.png"
    },
    {
      "name": "Light",
      "uri": "../Textures/Light.png"
    },
    {
      "name": "LightNormal",
      "uri": "../Textures/LightNormal.png"
    }
  ],
  "materials": [
    {
      "extensions": {
        "KHR_materials_specular": {}
      },
      "extras": {
        "legacyMaterial": {
          "diffuse": [
            1,
            1,
            1,
            1
          ],
          "specular": [
            1,
            1,
            1
          ],
          "emissive": [
            0,
            0,
            0
          ],
          "shininess": 0
        },
        "legacyEffect": {
          "file": "..\\\\shaders\\\\NormalMapping.fx",
          "dwords": {
            "lightDir": 0,
            "technique": 4
          },
          "floats": {
            "ambientColor": [
              0.313726,
              0.313726,
              0.313726,
              1
            ],
            "carHueColorChange": [
              0
            ],
            "diffuseColor": [
              0.654902,
              0.654902,
              0.654902,
              1
            ],
            "shadowCarColor": [
              1,
              1,
              1,
              1
            ],
            "shininess": [
              16
            ],
            "specularColor": [
              1,
              1,
              1,
              1
            ]
          },
          "strings": {
            "NormalizeCubeTexture": "..\\\\textures\\\\NormalizeCubeMap.dds",
            "diffuseTexture": "..\\\\textures\\\\TLight.tga",
            "normalTexture": "..\\\\textures\\\\TLightNormal.tga",
            "reflectionCubeTexture": "..\\\\textures\\\\SkyCubeMap.dds"
          }
        }
      },
      "name": "orig_09_-_Default",
      "normalTexture": {
        "index": 1
      },
      "pbrMetallicRoughness": {
        "baseColorTexture": {
          "index": 0
        },
        "metallicFactor": 0
      }
    },
    {
      "extensions": {
        "KHR_materials_specular": {}
      },
      "extras": {
        "legacyMaterial": {
          "diffuse": [
            1,
            1,
            1,
            1
          ],
          "specular": [
            1,
            1,
            1
          ],
          "emissive": [
            0,
            0,
            0
          ],
          "shininess": 0
        },
        "legacyEffect": {
          "file": "..\\\\shaders\\\\NormalMapping.fx",
          "dwords": {
            "lightDir": 0,
            "technique": 8
          },
          "floats": {
            "ambientColor": [
              0.121569,
              0.121569,
              0.121569,
              1
            ],
            "carHueColorChange": [
              0
            ],
            "diffuseColor": [
              0.301961,
              0.301961,
              0.301961,
              1
            ],
            "shadowCarColor": [
              1,
              1,
              1,
              1
            ],
            "shininess": [
              16
            ],
            "specularColor": [
              0.458824,
              0.458824,
              0.458824,
              1
            ]
          },
          "strings": {
            "NormalizeCubeTexture": "..\\\\textures\\\\NormalizeCubeMap.dds",
            "diffuseTexture": "..\\\\textures\\\\Light.tga",
            "normalTexture": "..\\\\textures\\\\LightNormal.tga",
            "reflectionCubeTexture": "..\\\\textures\\\\SkyCubeMap.dds"
          }
        }
      },
      "name": "orig_09_-_Defaultfit",
      "normalTexture": {
        "index": 3
      },
      "pbrMetallicRoughness": {
        "baseColorTexture": {
          "index": 2
        },
        "metallicFactor": 0
      }
    },
    {
      "extensions": {
        "KHR_materials_specular": {}
      },
      "extras": {
        "legacyMaterial": {
          "diffuse": [
            1,
            1,
            1,
            1
          ],
          "specular": [
            1,
            1,
            1
          ],
          "emissive": [
            0,
            0,
            0
          ],
          "shininess": 0
        },
        "legacyEffect": {
          "file": "..\\\\shaders\\\\NormalMapping.fx",
          "dwords": {
            "lightDir": 0,
            "technique": 8
          },
          "floats": {
            "ambientColor": [
              0.337255,
              0,
              0,
              1
            ],
            "carHueColorChange": [
              0
            ],
            "diffuseColor": [
              0.74902,
              0,
              0,
              1
            ],
            "shadowCarColor": [
              1,
              1,
              1,
              1
            ],
            "shininess": [
              16
            ],
            "specularColor": [
              1,
              0.541176,
              0.541176,
              1
            ]
          },
          "strings": {
            "NormalizeCubeTexture": "..\\\\textures\\\\NormalizeCubeMap.dds",
            "diffuseTexture": "..\\\\textures\\\\Light.tga",
            "normalTexture": "..\\\\textures\\\\LightNormal.tga",
            "reflectionCubeTexture": "..\\\\textures\\\\SkyCubeMap.dds"
          }
        }
      },
      "name": "orig_09_-_Defaultfitqwe",
      "normalTexture": {
        "index": 3
      },
      "pbrMetallicRoughness": {
        "baseColorTexture": {
          "index": 2
        },
        "metallicFactor": 0
      }
    }
  ],
  "meshes": [
    {
      "primitives": [
        {
          "attributes": {
            "POSITION": 0,
            "NORMAL": 1,
            "TEXCOORD_0": 2
          },
          "indices": 3,
          "material": 0
        }
      ]
    },
    {
      "primitives": [
        {
          "attributes": {
            "POSITION": 4,
            "NORMAL": 5,
            "TEXCOORD_0": 6
          },
          "indices": 7,
          "material": 1
        }
      ]
    },
    {
      "primitives": [
        {
          "attributes": {
            "POSITION": 8,
            "NORMAL": 9,
            "TEXCOORD_0": 10
          },
          "indices": 11,
          "material": 1
        }
      ]
    },
    {
      "primitives": [
        {
          "attributes": {
            "POSITION": 12,
            "NORMAL": 13,
            "TEXCOORD_0": 14
          },
          "indices": 15,
          "material": 0
        }
      ]
    },
    {
      "primitives": [
        {
          "attributes": {
            "POSITION": 16,
            "NORMAL": 17,
            "TEXCOORD_0": 18
          },
          "indices": 19,
          "material": 2
        }
      ]
    }
  ],
  "nodes": [
    {
      "name": "$dummy_root",
      "children": [
        1,
        2,
        3,
        4,
        5
      ]
    },
    {
      "name": "TLight",
      "mesh": 0,
      "rotation": [
        0.61237246,
        -0.35355335,
        0.6123725,
        0.35355335
      ],
      "scale": [
        0.01942,
        0.019419992,
        0.019419992
      ],
      "translation": [
        0.004273468,
        4.077861,
        -0.0014387502
      ]
    },
    {
      "name": "Light03",
      "mesh": 1,
      "rotation": [
        0.70710677,
        0,
        0,
        0.70710677
      ],
      "scale": [
        0.011826,
        0.011826,
        0.011826
      ],
      "translation": [
        -2.874188,
        2.9889889,
        0.115721
      ]
    },
    {
      "name": "Light04",
      "mesh": 2,
      "rotation": [
        0.70710677,
        0,
        0,
        0.70710677
      ],
      "scale": [
        0.011826,
        0.011826,
        0.011826
      ],
      "translation": [
        -2.874188,
        2.650274,
        0.115721
      ]
    },
    {
      "name": "Mesh02",
      "mesh": 3,
      "rotation": [
        0.61237705,
        -0.3535454,
        0.61237705,
        0.3535454
      ],
      "scale": [
        0.011826,
        0.0118254665,
        0.0118254665
      ],
      "translation": [
        -0.9760991,
        4.133127,
        -1.289536
      ]
    },
    {
      "name": "Light05",
      "mesh": 4,
      "rotation": [
        0.70710677,
        0,
        0,
        0.70710677
      ],
      "scale": [
        0.011826,
        0.011826,
        0.011826
      ],
      "translation": [
        -2.874188,
        3.3233068,
        0.115721
      ]
    }
  ],
  "scene": 0,
  "scenes": [
    {
      "nodes": [
        0
      ]
    }
  ],
  "textures": [
    {
      "source": 0
    },
    {
      "source": 1
    },
    {
      "source": 2
    },
    {
      "source": 3
    }
  ]
}