{
  "asset": {
    "generator": "Open Asset Import Library (assimp v6.0.dcad2ae)",
    "version": "2.0"
  },
  "extensionsUsed": [
    "KHR_materials_specular"
  ],
  "accessors": [
    {
      "bufferView": 0,
      "componentType": 5126,
      "count": 266,
      "max": [
        212.0538330078125,
        240.6202850341797,
        161.41949462890625
      ],
      "min": [
        -270.75048828125,
        -0.9725819826126099,
        -153.33828735351562
      ],
      "type": "VEC3"
    },
    {
      "bufferView": 1,
      "componentType": 5126,
      "count": 266,
      "max": [
        0.9674262404441833,
        0.9807238578796387,
        0.9957747459411621
      ],
      "min": [
        -0.9852438569068909,
        -0.9999998807907104,
        -0.9970284700393677
      ],
      "type": "VEC3"
    },
    {
      "bufferView": 2,
      "componentType": 5126,
      "count": 266,
      "max": [
        0.9677309989929199,
        1
      ],
      "min": [
        0,
        2.2250738585072014E-308
      ],
      "type": "VEC2"
    },
    {
      "bufferView": 3,
      "componentType": 5125,
      "count": 1170,
      "max": [
        265
      ],
      "min": [
        0
      ],
      "type": "SCALAR"
    }
  ],
  "bufferViews": [
    {
      "buffer": 0,
      "byteLength": 3192,
      "target": 34962
    },
    {
      "buffer": 0,
      "byteLength": 3192,
      "byteOffset": 3192,
      "target": 34962
    },
    {
      "buffer": 0,
      "byteLength": 2128,
      "byteOffset": 6384,
      "target": 34962
    },
    {
      "buffer": 0,
      "byteLength": 4680,
      "byteOffset": 8512,
      "target": 34963
    }
  ],
  "buffers": [
    {
      "byteLength": 13192,
      "uri": "Stone4.bin"
    }
  ],
  "images": [
    {
      "name": "Stone04",
      "uri": "../Textures/Stone04.png"
    },
    {
      "name": "Stone04Normal",
      "uri": "../Textures/Stone04Normal.png"
    }
  ],
  "materials": [
    {
      "extensions": {
        "KHR_materials_specular": {}
      },
      "extras": {
        "legacyMaterial": {
          "diffuse": [
            1,
            1,
            1,
            1
          ],
          "specular": [
            1,
            1,
            1
          ],
          "emissive": [
            0,
            0,
            0
          ],
          "shininess": 0
        },
        "legacyEffect": {
          "file": "..\\\\shaders\\\\NormalMapping.fx",
          "dwords": {
            "lightDir": 0,
            "technique": 6
          },
          "floats": {
            "ambientColor": [
              0.447059,
              0.372549,
              0.305882,
              1
            ],
            "carHueColorChange": [
              0
            ],
            "diffuseColor": [
              0.827451,
              0.827451,
              0.827451,
              1
            ],
            "shadowCarColor": [
              1,
              1,
              1,
              1
            ],
            "shininess": [
              16
            ],
            "specularColor": [
              1,
              1,
              1,
              1
            ]
          },
          "strings": {
            "NormalizeCubeTexture": "..\\\\textures\\\\NormalizeCubeMap.dds",
            "diffuseTexture": "..\\\\textures\\\\Stone04.tga",
            "normalTexture": "..\\\\textures\\\\Stone04Normal.tga",
            "reflectionCubeTexture": "..\\\\textures\\\\SkyCubeMap.dds"
          }
        }
      },
      "name": "orig_09_-_Default",
      "normalTexture": {
        "index": 1
      },
      "pbrMetallicRoughness": {
        "baseColorTexture": {
          "index": 0
        },
        "metallicFactor": 0
      }
    }
  ],
  "meshes": [
    {
      "primitives": [
        {
          "attributes": {
            "POSITION": 0,
            "NORMAL": 1,
            "TEXCOORD_0": 2
          },
          "indices": 3,
          "material": 0
        }
      ]
    }
  ],
  "nodes": [
    {
      "name": "Stone4",
      "mesh": 0,
      "scale": [
        0.011233,
        0.011233,
        0.011233
      ],
      "translation": [
        -0.022918,
        0,
        -0.026734
      ]
    }
  ],
  "scene": 0,
  "scenes": [
    {
      "nodes": [
        0
      ]
    }
  ],
  "textures": [
    {
      "source": 0
    },
    {
      "source": 1
    }
  ]
}